<svg width="356" height="297" viewBox="0 0 356 297" fill="none" xmlns="http://www.w3.org/2000/svg">
<g clip-path="url(#clip0_34_1308)" filter="url(#filter0_d_34_1308)">
<path d="M103.306 117.776L246.426 117.776C249.94 117.776 252.79 114.927 252.79 111.412V6.62621C252.79 3.11163 249.94 0.262505 246.426 0.262505L103.306 0.262505C99.7912 0.262505 96.9421 3.11163 96.9421 6.62621V111.412C96.9421 114.927 99.7912 117.776 103.306 117.776Z" fill="white"/>
<path d="M246.426 118.038H103.306C101.549 118.036 99.865 117.337 98.6228 116.095C97.3806 114.853 96.6819 113.169 96.6799 111.412V6.62605C96.6819 4.86932 97.3806 3.1851 98.6228 1.9429C99.865 0.700702 101.549 0.0019838 103.306 4.57764e-05L246.426 4.57764e-05C248.182 0.00198364 249.867 0.700691 251.109 1.94288C252.351 3.18507 253.05 4.86929 253.052 6.62605V111.412C253.05 113.169 252.351 114.853 251.109 116.095C249.867 117.337 248.182 118.036 246.426 118.038V118.038ZM103.306 0.524676C101.688 0.52653 100.137 1.16995 98.9937 2.31378C97.8498 3.45761 97.2064 5.00844 97.2046 6.62605V111.412C97.2064 113.029 97.8498 114.58 98.9937 115.724C100.137 116.868 101.688 117.511 103.306 117.513H246.426C248.043 117.511 249.594 116.868 250.738 115.724C251.882 114.58 252.525 113.029 252.527 111.412V6.62605C252.525 5.00841 251.882 3.45758 250.738 2.31376C249.594 1.16994 248.043 0.52653 246.426 0.524676H103.306Z" fill="#292A2E"/>
<path d="M115.488 10.1342L105.259 11.1042C104.203 11.2044 103.428 12.1421 103.528 13.1986L104.498 23.4276C104.598 24.484 105.536 25.2593 106.592 25.1591L116.821 24.1891C117.878 24.0889 118.653 23.1513 118.553 22.0948L117.583 11.8658C117.483 10.8093 116.545 10.0341 115.488 10.1342Z" fill="#292A2E"/>
<path d="M144.618 32.3238L134.402 31.2246C133.347 31.1111 132.399 31.8744 132.286 32.9296L131.186 43.1455C131.073 44.2006 131.836 45.148 132.891 45.2615L143.107 46.3607C144.162 46.4742 145.11 45.7109 145.223 44.6557L146.323 34.4398C146.436 33.3847 145.673 32.4373 144.618 32.3238Z" fill="white"/>
<path d="M143.317 46.6904C143.235 46.6904 143.154 46.686 143.073 46.6774L132.857 45.5781C132.267 45.5139 131.726 45.2181 131.354 44.7557C130.981 44.2932 130.807 43.7018 130.87 43.1113L131.969 32.8959C132.001 32.6034 132.089 32.32 132.23 32.0618C132.371 31.8036 132.562 31.5757 132.791 31.3911C133.02 31.2065 133.283 31.0688 133.566 30.986C133.848 30.9031 134.144 30.8767 134.436 30.9082L144.652 32.0074C145.242 32.0711 145.784 32.3668 146.156 32.8294C146.529 33.292 146.703 33.8836 146.639 34.4743L145.54 44.6896C145.481 45.2384 145.222 45.7461 144.811 46.1153C144.401 46.4845 143.869 46.6893 143.317 46.6904H143.317ZM143.141 46.0442C143.564 46.0897 143.987 45.9654 144.318 45.6986C144.649 45.4319 144.861 45.0446 144.906 44.6218L146.006 34.4062C146.051 33.9834 145.927 33.5598 145.66 33.2287C145.394 32.8975 145.006 32.6859 144.583 32.6403L134.367 31.5414C134.158 31.5189 133.946 31.5378 133.744 31.5971C133.542 31.6564 133.354 31.7549 133.19 31.887C133.026 32.0191 132.89 32.1823 132.789 32.3671C132.688 32.5519 132.624 32.7547 132.602 32.9641L131.503 43.1794C131.458 43.6022 131.582 44.0255 131.849 44.3565C132.116 44.6875 132.503 44.8993 132.926 44.9453L143.141 46.0442V46.0442Z" fill="#292A2E"/>
<path d="M189.948 48.521C189.896 48.521 189.845 48.5082 189.798 48.4837C189.752 48.4592 189.713 48.4236 189.684 48.3803C183.202 38.7389 173.369 36.9836 166.259 37.2064C161.451 37.3894 156.704 38.3468 152.201 40.0416C152.123 40.0731 152.036 40.0726 151.959 40.0402C151.881 40.0078 151.82 39.9461 151.788 39.8686C151.755 39.7911 151.755 39.704 151.787 39.6262C151.818 39.5485 151.88 39.4865 151.957 39.4536C156.532 37.7307 161.354 36.7571 166.239 36.57C173.507 36.3415 183.567 38.142 190.212 48.0247C190.244 48.0726 190.263 48.1283 190.266 48.1859C190.269 48.2436 190.256 48.3009 190.229 48.3518C190.202 48.4028 190.162 48.4454 190.112 48.4751C190.063 48.5049 190.006 48.5206 189.948 48.5207V48.521Z" fill="#292A2E"/>
<path d="M190.066 48.6512C190.037 48.6511 190.007 48.647 189.979 48.6391L183.456 46.7969C183.375 46.7739 183.306 46.7197 183.265 46.646C183.224 46.5723 183.213 46.4853 183.236 46.404C183.259 46.3228 183.314 46.2539 183.387 46.2127C183.461 46.1714 183.548 46.1611 183.629 46.1841L189.846 47.9394L191.601 41.7228C191.626 41.6434 191.681 41.5767 191.754 41.537C191.827 41.4973 191.912 41.4877 191.992 41.5104C192.072 41.533 192.14 41.586 192.182 41.658C192.223 41.7301 192.235 41.8155 192.214 41.896L190.372 48.4188C190.353 48.4856 190.313 48.5444 190.258 48.5864C190.203 48.6283 190.135 48.6511 190.066 48.6512V48.6512Z" fill="#292A2E"/>
<path d="M200.297 51.5069L190.068 52.4768C189.011 52.577 188.236 53.5147 188.336 54.5712L189.306 64.8002C189.407 65.8567 190.344 66.6319 191.401 66.5317L201.63 65.5617C202.686 65.4615 203.461 64.5239 203.361 63.4674L202.391 53.2384C202.291 52.1819 201.353 51.4067 200.297 51.5069Z" fill="#367CFF"/>
<path d="M233.728 20.0604L223.474 19.4011C222.415 19.333 221.501 20.1364 221.433 21.1954L220.774 31.4491C220.706 32.5081 221.509 33.4219 222.568 33.49L232.822 34.1493C233.881 34.2174 234.795 33.414 234.863 32.355L235.522 22.1013C235.59 21.0423 234.787 20.1285 233.728 20.0604Z" fill="#292A2E"/>
<path d="M239.521 53.5214L229.305 52.4222C228.25 52.3087 227.303 53.072 227.189 54.1272L226.09 64.3431C225.977 65.3982 226.74 66.3456 227.795 66.4591L238.011 67.5583C239.066 67.6718 240.013 66.9085 240.127 65.8533L241.226 55.6374C241.34 54.5823 240.576 53.6349 239.521 53.5214Z" fill="#0CBC8B"/>
<path d="M183.442 86.8001L173.213 87.7701C172.157 87.8703 171.382 88.808 171.482 89.8645L172.452 100.093C172.552 101.15 173.49 101.925 174.546 101.825L184.775 100.855C185.832 100.755 186.607 99.8171 186.507 98.7607L185.537 88.5317C185.437 87.4752 184.499 86.6999 183.442 86.8001Z" fill="white"/>
<path d="M174.364 102.152C173.807 102.151 173.27 101.943 172.858 101.568C172.446 101.193 172.189 100.678 172.136 100.124L171.166 89.8945C171.11 89.3033 171.292 88.7142 171.67 88.2565C172.049 87.7988 172.593 87.5099 173.184 87.4532L183.413 86.4832C183.705 86.4554 184.001 86.4856 184.282 86.572C184.563 86.6584 184.825 86.7994 185.051 86.9868C185.278 87.1743 185.466 87.4045 185.603 87.6645C185.741 87.9244 185.826 88.2089 185.854 88.5018L186.824 98.7305C186.879 99.3217 186.698 99.9108 186.32 100.369C185.941 100.826 185.397 101.115 184.806 101.172V101.172L174.577 102.142C174.505 102.149 174.434 102.152 174.364 102.152ZM183.628 87.1097C183.577 87.1097 183.525 87.1122 183.474 87.117L173.244 88.086C172.821 88.1266 172.431 88.3334 172.16 88.661C171.889 88.9887 171.759 89.4104 171.799 89.8337L172.769 100.062C172.81 100.485 173.017 100.875 173.344 101.146C173.672 101.416 174.093 101.546 174.516 101.507L184.745 100.537C185.168 100.496 185.558 100.29 185.829 99.962C186.1 99.6344 186.23 99.2126 186.19 98.7894L185.22 88.5607C185.182 88.1639 184.998 87.7955 184.704 87.5271C184.409 87.2587 184.025 87.1095 183.626 87.1087L183.628 87.1097Z" fill="#292A2E"/>
<path d="M117.487 83.3404L107.258 84.3104C106.201 84.4106 105.426 85.3482 105.526 86.4047L106.496 96.6337C106.597 97.6902 107.534 98.4654 108.591 98.3652L118.82 97.3953C119.876 97.2951 120.651 96.3574 120.551 95.3009L119.581 85.0719C119.481 84.0154 118.543 83.2402 117.487 83.3404Z" fill="#367CFF"/>
<path d="M199.325 46.2955C199.313 46.2954 199.301 46.2948 199.289 46.2935C199.247 46.2888 199.207 46.2758 199.17 46.2555C199.134 46.2352 199.102 46.2079 199.076 46.1751C199.05 46.1424 199.03 46.1048 199.019 46.0646C199.007 46.0244 199.004 45.9824 199.009 45.9408C199.487 42.7268 200.481 39.6111 201.951 36.7136C205.135 30.5432 210.127 27.0041 216.385 26.477C216.469 26.4699 216.553 26.4965 216.617 26.551C216.682 26.6054 216.722 26.6833 216.729 26.7674C216.736 26.8516 216.71 26.9351 216.655 26.9996C216.601 27.0641 216.523 27.1043 216.439 27.1114C201.843 28.339 199.662 45.837 199.641 46.0137C199.632 46.0912 199.595 46.1627 199.537 46.2147C199.478 46.2666 199.403 46.2953 199.325 46.2955Z" fill="#292A2E"/>
<path d="M213.358 30.2662C213.295 30.2663 213.233 30.2477 213.181 30.2127C213.129 30.1778 213.088 30.1282 213.064 30.07C213.039 30.0119 213.033 29.9479 213.045 29.8862C213.057 29.8244 213.088 29.7677 213.132 29.7231L216.074 26.7686L213.119 23.8271C213.089 23.7978 213.065 23.7627 213.048 23.7239C213.031 23.6851 213.022 23.6433 213.022 23.6011C213.021 23.5588 213.029 23.5169 213.045 23.4777C213.061 23.4386 213.085 23.403 213.115 23.373C213.144 23.3431 213.18 23.3194 213.219 23.3033C213.258 23.2872 213.3 23.279 213.342 23.2793C213.384 23.2796 213.426 23.2883 213.465 23.3049C213.504 23.3215 213.539 23.3456 213.569 23.376L216.748 26.5422C216.808 26.6019 216.841 26.6829 216.841 26.7673C216.841 26.8517 216.808 26.9327 216.748 26.9924L213.582 30.1723C213.553 30.202 213.518 30.2256 213.479 30.2417C213.441 30.2578 213.4 30.2661 213.358 30.2662V30.2662Z" fill="#292A2E"/>
<path d="M178.629 82.0448C178.561 82.0448 178.495 82.0229 178.44 81.9824C178.385 81.9419 178.345 81.8849 178.325 81.8197C178.278 81.6641 173.699 66.2034 185.551 59.7903C185.588 59.7695 185.629 59.7562 185.671 59.7512C185.713 59.7463 185.756 59.7497 185.796 59.7614C185.837 59.7731 185.875 59.7928 185.908 59.8194C185.941 59.8459 185.968 59.8787 185.988 59.916C186.008 59.9532 186.021 59.9941 186.025 60.0362C186.029 60.0783 186.025 60.1209 186.012 60.1613C186 60.2017 185.979 60.2393 185.952 60.2717C185.925 60.3042 185.892 60.3309 185.854 60.3503C174.464 66.5125 178.889 81.4813 178.935 81.6319C178.949 81.6795 178.952 81.7299 178.944 81.7789C178.936 81.828 178.916 81.8744 178.886 81.9144C178.857 81.9545 178.818 81.987 178.774 82.0094C178.729 82.0319 178.68 82.0435 178.63 82.0435L178.629 82.0448Z" fill="#292A2E"/>
<path d="M184.341 64.037C184.289 64.037 184.238 64.0243 184.192 64.0001C184.147 63.9759 184.107 63.9409 184.078 63.8982C184.049 63.8555 184.031 63.8063 184.025 63.7548C184.019 63.7034 184.026 63.6513 184.044 63.6031L185.373 60.1914L181.961 58.862C181.884 58.8304 181.822 58.7697 181.789 58.6931C181.756 58.6164 181.755 58.5299 181.785 58.4521C181.815 58.3744 181.875 58.3116 181.951 58.2772C182.027 58.2429 182.113 58.2398 182.191 58.2686L185.9 59.712C185.939 59.7271 185.975 59.7498 186.005 59.7788C186.035 59.8077 186.059 59.8423 186.076 59.8806C186.093 59.9189 186.102 59.9601 186.103 60.0019C186.104 60.0437 186.096 60.0853 186.081 60.1242L184.638 63.8326C184.614 63.8927 184.574 63.9443 184.521 63.9808C184.468 64.0173 184.405 64.0369 184.341 64.037V64.037Z" fill="#292A2E"/>
<path d="M139.036 29.4605C138.952 29.4605 138.871 29.4269 138.811 29.3672C138.751 29.3075 138.718 29.2266 138.718 29.1421C138.718 24.3062 137.291 20.6146 134.475 18.1704C129.477 13.8323 121.703 14.8781 121.625 14.8892C121.542 14.9012 121.457 14.8794 121.389 14.8288C121.322 14.7781 121.277 14.7027 121.265 14.6191C121.253 14.5355 121.275 14.4506 121.325 14.3831C121.376 14.3155 121.451 14.2709 121.535 14.2589C121.865 14.2115 129.669 13.1587 134.889 17.6868C137.852 20.2575 139.355 24.1117 139.354 29.1421C139.354 29.1839 139.346 29.2253 139.33 29.264C139.314 29.3026 139.291 29.3377 139.261 29.3672C139.232 29.3968 139.196 29.4202 139.158 29.4362C139.119 29.4522 139.078 29.4605 139.036 29.4605Z" fill="#292A2E"/>
<path d="M139.051 29.5744C139.041 29.5744 139.031 29.5744 139.021 29.5744C138.98 29.5705 138.939 29.5584 138.902 29.5389C138.865 29.5193 138.832 29.4927 138.806 29.4604L135.943 26.0035C135.889 25.9385 135.863 25.8547 135.871 25.7706C135.879 25.6865 135.92 25.609 135.985 25.5552C136.05 25.5013 136.134 25.4755 136.218 25.4834C136.302 25.4913 136.38 25.5323 136.433 25.5973L139.094 28.8104L142.306 26.1516C142.338 26.1249 142.375 26.1049 142.415 26.0926C142.455 26.0803 142.497 26.076 142.539 26.0799C142.58 26.0838 142.621 26.0959 142.658 26.1155C142.695 26.1351 142.727 26.1617 142.754 26.1939C142.781 26.2261 142.801 26.2633 142.813 26.3032C142.825 26.3432 142.83 26.3852 142.826 26.4268C142.822 26.4684 142.81 26.5089 142.79 26.5458C142.771 26.5828 142.744 26.6155 142.712 26.6421L139.254 29.5025C139.196 29.5492 139.125 29.5746 139.051 29.5744Z" fill="#292A2E"/>
<path d="M146.09 64.5788H135.815C134.754 64.5788 133.894 65.4391 133.894 66.5003V76.7752C133.894 77.8364 134.754 78.6967 135.815 78.6967H146.09C147.151 78.6967 148.011 77.8364 148.011 76.7752V66.5003C148.011 65.4391 147.151 64.5788 146.09 64.5788Z" fill="#0CBC8B"/>
<path d="M172.258 83.3567C172.187 83.3566 172.119 83.3328 172.063 83.2892C172.007 83.2455 171.967 83.1845 171.95 83.1157C168.401 68.9176 151.047 69.9134 150.874 69.9252C150.832 69.928 150.79 69.9225 150.751 69.9092C150.711 69.8958 150.674 69.8747 150.643 69.8471C150.611 69.8196 150.585 69.786 150.567 69.7485C150.548 69.711 150.537 69.6701 150.534 69.6283C150.532 69.5865 150.537 69.5446 150.55 69.5048C150.564 69.4651 150.585 69.4285 150.612 69.3969C150.64 69.3654 150.674 69.3395 150.711 69.3209C150.749 69.3023 150.789 69.2913 150.831 69.2885C154.028 69.1803 157.22 69.6005 160.279 70.5319C164.823 71.9514 170.643 75.26 172.567 82.9597C172.578 83.0003 172.58 83.0425 172.574 83.0839C172.567 83.1252 172.553 83.165 172.532 83.2008C172.51 83.2367 172.482 83.268 172.448 83.2929C172.414 83.3178 172.376 83.3358 172.336 83.3459C172.311 83.3528 172.284 83.3564 172.258 83.3567V83.3567Z" fill="#292A2E"/>
<path d="M172.303 83.464C172.237 83.464 172.172 83.4434 172.118 83.4051L168.516 80.8485C168.447 80.7996 168.4 80.7253 168.386 80.6421C168.372 80.5588 168.392 80.4734 168.441 80.4046C168.49 80.3358 168.564 80.2892 168.647 80.2752C168.73 80.2611 168.816 80.2807 168.885 80.3296L172.224 82.6994L174.604 79.2479C174.652 79.179 174.726 79.132 174.808 79.1172C174.891 79.1023 174.976 79.1207 175.046 79.1685C175.115 79.2162 175.162 79.2894 175.178 79.372C175.193 79.4546 175.175 79.54 175.128 79.6095L172.565 83.3265C172.541 83.3612 172.51 83.3908 172.475 83.4136C172.439 83.4364 172.4 83.4519 172.358 83.4592C172.34 83.4624 172.321 83.464 172.303 83.464V83.464Z" fill="#292A2E"/>
<path d="M328.807 288.182L329.433 288.062L319.661 190.957L319.035 191.077L328.807 288.182Z" fill="#494949"/>
<path d="M292.421 288.182L293.046 288.062L283.275 190.957L282.65 191.077L292.421 288.182Z" fill="#494949"/>
<path d="M211.992 288.182L211.367 288.062L221.139 190.957L221.764 191.077L211.992 288.182Z" fill="#494949"/>
<path d="M248.378 288.182L247.753 288.062L257.525 190.957L258.15 191.077L248.378 288.182Z" fill="#494949"/>
<path d="M261.334 148.218L255.625 190.973L256.257 191.058L261.965 148.303L261.334 148.218Z" fill="#494949"/>
<path d="M326.856 148.218L321.148 190.973L321.779 191.057L327.488 148.302L326.856 148.218Z" fill="#494949"/>
<path d="M255.683 194.148H319.772C321.502 194.148 322.903 192.746 322.903 191.017V191.017C322.903 189.288 321.502 187.886 319.772 187.886H255.683C253.954 187.886 252.552 189.288 252.552 191.017V191.017C252.552 192.746 253.954 194.148 255.683 194.148Z" fill="#292A2E"/>
<path opacity="0.8" d="M255.683 194.148H319.772C321.502 194.148 322.903 192.746 322.903 191.017V191.017C322.903 189.288 321.502 187.886 319.772 187.886H255.683C253.954 187.886 252.552 189.288 252.552 191.017V191.017C252.552 192.746 253.954 194.148 255.683 194.148Z" fill="white"/>
<path d="M252.234 191.017C252.235 190.103 252.599 189.226 253.246 188.579C253.892 187.933 254.769 187.569 255.683 187.568H319.772C320.687 187.568 321.565 187.932 322.211 188.578C322.858 189.225 323.222 190.103 323.222 191.017C323.222 191.932 322.858 192.81 322.211 193.456C321.565 194.103 320.687 194.467 319.772 194.467H255.683C254.769 194.466 253.892 194.102 253.245 193.455C252.599 192.808 252.235 191.932 252.234 191.017V191.017ZM255.683 188.205C254.937 188.205 254.222 188.501 253.695 189.028C253.167 189.556 252.871 190.271 252.871 191.017C252.871 191.763 253.167 192.478 253.695 193.006C254.222 193.533 254.937 193.83 255.683 193.83H319.772C320.518 193.83 321.234 193.533 321.761 193.006C322.289 192.478 322.585 191.763 322.585 191.017C322.585 190.271 322.289 189.556 321.761 189.028C321.234 188.501 320.518 188.205 319.772 188.205H255.683Z" fill="#292A2E"/>
<path d="M220.508 194.148H284.597C286.326 194.148 287.728 192.746 287.728 191.017V191.017C287.728 189.288 286.326 187.886 284.597 187.886H220.508C218.779 187.886 217.377 189.288 217.377 191.017V191.017C217.377 192.746 218.779 194.148 220.508 194.148Z" fill="white"/>
<path d="M217.057 191.017C217.058 190.102 217.422 189.226 218.069 188.579C218.716 187.932 219.593 187.569 220.508 187.568H284.597C285.512 187.568 286.389 187.932 287.036 188.578C287.683 189.225 288.046 190.103 288.046 191.017C288.046 191.932 287.683 192.81 287.036 193.456C286.389 194.103 285.512 194.467 284.597 194.467H220.508C219.593 194.466 218.716 194.102 218.069 193.456C217.422 192.809 217.058 191.932 217.057 191.017ZM220.508 188.205C220.139 188.205 219.773 188.278 219.432 188.419C219.09 188.56 218.78 188.767 218.519 189.029C218.258 189.29 218.051 189.6 217.91 189.941C217.768 190.282 217.695 190.648 217.695 191.017C217.695 191.387 217.768 191.753 217.91 192.094C218.051 192.435 218.258 192.745 218.519 193.006C218.78 193.267 219.09 193.475 219.432 193.616C219.773 193.757 220.139 193.83 220.508 193.83H284.597C285.343 193.83 286.058 193.534 286.586 193.006C287.113 192.479 287.41 191.763 287.41 191.017C287.41 190.271 287.113 189.556 286.586 189.029C286.058 188.501 285.343 188.205 284.597 188.205H220.508Z" fill="#292A2E"/>
<path d="M264.848 148.262H327.004C328.02 148.262 329.001 147.892 329.765 147.222C330.529 146.551 331.022 145.626 331.153 144.618L335.264 113.044C335.341 112.454 335.291 111.854 335.118 111.285C334.945 110.715 334.652 110.189 334.259 109.742C333.867 109.295 333.383 108.937 332.841 108.691C332.299 108.446 331.71 108.319 331.115 108.319H268.959C267.943 108.319 266.961 108.689 266.197 109.359C265.433 110.03 264.94 110.956 264.809 111.964L260.697 143.537C260.62 144.128 260.67 144.728 260.844 145.297C261.017 145.866 261.31 146.392 261.703 146.84C262.096 147.287 262.58 147.645 263.122 147.89C263.664 148.136 264.253 148.262 264.848 148.262Z" fill="#292A2E"/>
<path opacity="0.8" d="M264.848 148.262H327.004C328.02 148.262 329.001 147.892 329.765 147.222C330.529 146.551 331.022 145.626 331.153 144.618L335.264 113.044C335.341 112.454 335.291 111.854 335.118 111.285C334.945 110.715 334.652 110.189 334.259 109.742C333.867 109.295 333.383 108.937 332.841 108.691C332.299 108.446 331.71 108.319 331.115 108.319H268.959C267.943 108.319 266.961 108.689 266.197 109.359C265.433 110.03 264.94 110.956 264.809 111.964L260.697 143.537C260.62 144.128 260.67 144.728 260.844 145.297C261.017 145.866 261.31 146.392 261.703 146.84C262.096 147.287 262.58 147.645 263.122 147.89C263.664 148.136 264.253 148.262 264.848 148.262Z" fill="white"/>
<path d="M261.466 147.049C261.043 146.568 260.728 146.002 260.541 145.39C260.355 144.777 260.301 144.132 260.384 143.496L264.495 111.923C264.638 110.84 265.17 109.845 265.991 109.124C266.812 108.403 267.867 108.004 268.96 108.001H331.116C331.756 108.001 332.389 108.138 332.973 108.402C333.556 108.666 334.077 109.052 334.499 109.533C334.922 110.014 335.237 110.58 335.423 111.193C335.61 111.805 335.664 112.451 335.581 113.086L331.47 144.659C331.326 145.742 330.795 146.737 329.974 147.458C329.152 148.179 328.098 148.578 327.005 148.581H264.848C264.208 148.58 263.575 148.444 262.992 148.18C262.409 147.916 261.888 147.53 261.466 147.049V147.049ZM268.959 108.638C268.021 108.64 267.116 108.983 266.411 109.602C265.706 110.221 265.25 111.075 265.127 112.005L261.015 143.579C260.944 144.124 260.991 144.678 261.151 145.204C261.311 145.73 261.582 146.216 261.944 146.629C262.307 147.042 262.754 147.373 263.255 147.6C263.756 147.827 264.299 147.944 264.849 147.944H327.005C327.943 147.942 328.849 147.6 329.554 146.98C330.259 146.361 330.716 145.507 330.839 144.577L334.95 113.004C335.021 112.458 334.975 111.904 334.815 111.378C334.655 110.852 334.384 110.366 334.021 109.953C333.658 109.54 333.212 109.209 332.711 108.982C332.21 108.755 331.666 108.638 331.116 108.638H268.959Z" fill="#292A2E"/>
<path d="M261.333 148.262H323.489C324.505 148.262 325.487 147.892 326.25 147.222C327.014 146.551 327.507 145.626 327.639 144.618L331.75 113.044C331.827 112.454 331.777 111.854 331.603 111.285C331.43 110.715 331.137 110.189 330.745 109.742C330.352 109.295 329.868 108.937 329.326 108.691C328.784 108.446 328.195 108.319 327.6 108.319H265.445C264.429 108.319 263.448 108.689 262.684 109.359C261.921 110.03 261.427 110.955 261.296 111.963L257.185 143.536C257.108 144.127 257.157 144.726 257.331 145.296C257.504 145.865 257.797 146.391 258.189 146.838C258.582 147.286 259.065 147.644 259.608 147.89C260.15 148.135 260.738 148.262 261.333 148.262V148.262Z" fill="white"/>
<path d="M257.95 147.049C257.527 146.568 257.212 146.002 257.026 145.39C256.839 144.777 256.785 144.132 256.868 143.496L260.979 111.923C261.123 110.839 261.654 109.845 262.476 109.123C263.297 108.402 264.352 108.004 265.445 108.001H327.601C328.242 108.001 328.875 108.138 329.458 108.402C330.042 108.666 330.562 109.052 330.985 109.533C331.407 110.014 331.722 110.58 331.909 111.193C332.095 111.805 332.149 112.451 332.066 113.086L327.955 144.659C327.812 145.742 327.28 146.737 326.459 147.458C325.637 148.179 324.583 148.578 323.49 148.581H261.333C260.693 148.581 260.06 148.444 259.476 148.18C258.893 147.916 258.373 147.53 257.95 147.049V147.049ZM265.445 108.638C264.507 108.64 263.601 108.983 262.896 109.602C262.191 110.221 261.735 111.075 261.612 112.005L257.5 143.579C257.429 144.124 257.475 144.678 257.635 145.204C257.796 145.73 258.066 146.216 258.429 146.629C258.792 147.042 259.239 147.373 259.74 147.6C260.241 147.827 260.784 147.944 261.334 147.944H323.489C324.427 147.942 325.333 147.6 326.038 146.98C326.743 146.361 327.2 145.507 327.323 144.577L331.434 113.004C331.505 112.459 331.459 111.904 331.299 111.378C331.139 110.852 330.868 110.367 330.505 109.953C330.143 109.54 329.696 109.209 329.195 108.982C328.694 108.755 328.15 108.638 327.6 108.638H265.445Z" fill="#292A2E"/>
<path d="M214.357 271.361C214.357 271.361 212.65 280.209 204.366 280.702C196.082 281.195 197.878 287.795 197.878 287.795H229.536V271.978L214.357 271.361Z" fill="#367CFF"/>
<path d="M242.762 265.775C242.762 265.775 245.136 274.467 237.92 278.567C230.705 282.666 235.229 287.795 235.229 287.795L263.636 273.819L256.654 259.628L242.762 265.775Z" fill="#367CFF"/>
<path d="M260.356 263.319L236.401 187.748H279.823C288.546 187.748 292.182 180.351 292.182 171.629C292.182 162.907 283.607 155.261 274.885 155.261H216.281C210.961 155.261 204.996 158.514 202.076 162.962C199.156 167.409 199.946 174.301 202.061 179.182L240.421 272.35" fill="#262626"/>
<path opacity="0.8" d="M260.356 263.319L236.401 187.748H279.823C288.546 187.748 292.182 180.351 292.182 171.629C292.182 162.907 283.607 155.261 274.885 155.261H216.281C210.961 155.261 204.996 158.514 202.076 162.962C199.156 167.409 199.946 174.301 202.061 179.182L240.421 272.35" fill="#0A0A0A"/>
<path d="M232.011 277.704L239.587 187.748L292.181 187.744C304.504 186.778 310.148 180.024 309.969 171.304C309.791 162.695 305.432 154.191 296.861 154.191H225.977C219.636 154.321 212.294 160.32 212.294 167.219L208.61 276.659" fill="#262626"/>
<path d="M313.557 154.296C313.557 154.296 315.893 169.528 312.191 177.996C307.569 188.568 290.242 187.744 290.242 187.744L291.218 154.191L313.557 154.296Z" fill="#262626"/>
<path d="M316.131 152.575L316.199 152.579C316.199 152.579 316.15 151.281 316.131 152.575Z" fill="#333333"/>
<path d="M316.047 152.575L316.114 152.579C316.114 152.579 316.066 151.281 316.047 152.575Z" fill="#333333"/>
<path d="M203.294 90.8233C203.418 90.5779 203.615 90.377 203.858 90.2483C204.101 90.1197 204.378 90.0696 204.65 90.1051C204.648 90.0809 204.654 90.0566 204.666 90.0354C204.678 90.0191 204.695 90.0064 204.714 89.9987C204.733 89.9909 204.754 89.9883 204.775 89.9912L203.855 89.3316C203.58 89.1431 203.382 88.8616 203.299 88.539C203.215 88.2164 203.251 87.8744 203.4 87.5762C203.557 87.2864 203.816 87.065 204.126 86.9551C204.437 86.8452 204.777 86.8545 205.082 86.9812C205.079 86.9682 205.088 86.9558 205.09 86.9424L204.712 86.6715C204.454 86.493 204.265 86.2308 204.177 85.9292C204.09 85.6276 204.11 85.305 204.232 85.0161C204.314 84.8364 204.434 84.677 204.584 84.5493C204.734 84.4216 204.91 84.3288 205.101 84.2776C205.291 84.2264 205.491 84.2181 205.684 84.2533C205.878 84.2884 206.062 84.3662 206.222 84.481L207.095 85.1062C207.098 85.1011 207.095 85.095 207.099 85.0903C207.102 85.0855 207.111 85.0836 207.116 85.0785C206.916 84.8531 206.798 84.5663 206.782 84.2652C206.766 83.9641 206.853 83.6665 207.029 83.4212C207.44 82.7587 208.391 82.894 208.955 83.2983L214.09 86.8453L213.173 85.2969C212.988 84.9995 212.923 84.6431 212.991 84.2996C213.059 83.9561 213.255 83.6511 213.539 83.4463C213.689 83.3458 213.858 83.2769 214.036 83.2439C214.214 83.2109 214.396 83.2145 214.573 83.2544C214.749 83.2943 214.915 83.3697 215.062 83.4761C215.208 83.5824 215.331 83.7175 215.423 83.8729L220.435 92.309C221.023 93.2989 221.202 94.4789 220.933 95.5985C220.665 96.718 219.971 97.6889 218.998 98.3047V98.3047C217.87 99.019 216.555 99.3802 215.22 99.3418C213.885 99.3035 212.593 98.8674 211.508 98.0895L203.753 92.5312C203.495 92.3398 203.31 92.067 203.227 91.757C203.143 91.4471 203.167 91.1181 203.294 90.8233Z" fill="#E98862"/>
<g opacity="0.25">
<path d="M212.177 88.6086C212.158 88.6345 212.13 88.652 212.098 88.6574C212.066 88.6627 212.034 88.6555 212.008 88.6372L207.129 85.258C207.102 85.2393 207.084 85.211 207.078 85.1791C207.073 85.1471 207.08 85.1143 207.098 85.0876C207.117 85.0609 207.145 85.0426 207.177 85.0367C207.209 85.0307 207.242 85.0376 207.268 85.0558L212.148 88.4357C212.161 88.4448 212.172 88.4564 212.181 88.47C212.19 88.4835 212.196 88.4987 212.199 88.5146C212.202 88.5304 212.202 88.5468 212.198 88.5626C212.195 88.5784 212.189 88.5934 212.179 88.6066L212.177 88.6086Z" fill="#0C0C0C"/>
</g>
<g opacity="0.25">
<path d="M210.746 90.8016C210.727 90.8275 210.699 90.8451 210.667 90.8504C210.635 90.8558 210.603 90.8485 210.577 90.8302L205.133 87.0588C205.106 87.0403 205.088 87.012 205.082 86.9799C205.076 86.9479 205.083 86.9148 205.101 86.8879C205.12 86.8619 205.149 86.8442 205.18 86.8382C205.212 86.8323 205.245 86.8387 205.272 86.8561L210.717 90.6275C210.731 90.6366 210.742 90.6483 210.751 90.6618C210.76 90.6753 210.766 90.6905 210.769 90.7063C210.772 90.7222 210.771 90.7385 210.768 90.7543C210.765 90.7701 210.758 90.7851 210.749 90.7984L210.746 90.8016Z" fill="#0C0C0C"/>
</g>
<g opacity="0.25">
<path d="M209.209 93.1857C209.191 93.2116 209.162 93.2292 209.131 93.2345C209.099 93.2399 209.066 93.2326 209.04 93.2143L204.697 90.206C204.671 90.187 204.653 90.1588 204.648 90.1272C204.643 90.0956 204.65 90.0632 204.668 90.0369C204.687 90.0106 204.714 89.9924 204.746 89.9863C204.777 89.9802 204.81 89.9866 204.837 90.0042L209.18 93.0125C209.193 93.0216 209.205 93.0333 209.214 93.0468C209.223 93.0604 209.229 93.0755 209.232 93.0914C209.234 93.1073 209.234 93.1236 209.231 93.1394C209.228 93.1552 209.221 93.1701 209.212 93.1835L209.209 93.1857Z" fill="#0C0C0C"/>
</g>
<path d="M223.392 90.3885L238.11 115.455L256.068 91.8993L270.982 105.345L245.512 138.331L245.345 138.565C244.325 139.962 242.967 141.075 241.398 141.802C239.829 142.528 238.101 142.843 236.377 142.717C234.653 142.591 232.989 142.028 231.543 141.081C230.096 140.134 228.915 138.834 228.109 137.304L207.18 99.4034L223.392 90.3885Z" fill="#367CFF"/>
<path d="M239.551 118.469C239.583 118.469 239.615 118.46 239.643 118.445C239.671 118.429 239.694 118.407 239.711 118.379C239.728 118.352 239.737 118.321 239.738 118.289C239.74 118.257 239.733 118.225 239.718 118.197L238.275 115.37C238.252 115.327 238.213 115.295 238.166 115.281C238.12 115.267 238.07 115.271 238.026 115.294C237.983 115.316 237.95 115.354 237.934 115.399C237.919 115.445 237.921 115.496 237.942 115.54L239.385 118.367C239.401 118.398 239.424 118.423 239.454 118.441C239.483 118.459 239.517 118.469 239.551 118.469V118.469Z" fill="#0C0C0C"/>
<path d="M257.103 115.312L256.729 115.334L257.179 123.251L257.552 123.229L257.103 115.312Z" fill="#0C0C0C"/>
<path d="M304.527 58.0147C304.527 58.0147 305.217 66.8271 307.238 70.0038C313.057 79.1489 314.831 89.4925 309.174 94.9722C303.516 100.452 267.032 100.95 264.124 88.5311C261.676 78.0745 266.657 76.8896 267.771 68.2271C268.276 64.308 269.693 56.0852 269.693 56.0852" fill="#0A0A0A"/>
<path d="M273.412 86.5443C273.476 86.5361 274.174 98.1321 287.647 97.1223C296.974 96.4235 300.299 86.5278 300.513 86.5278C299.507 86.3142 297.814 86.0035 297.367 85.7638C295.899 84.9746 294.081 84.1536 293.608 81.3015C293.335 79.6576 293.799 71.2479 293.656 69.5846L279.339 72.7801C279.539 76.2927 280.939 84.4359 276.032 85.8771C275.215 86.1168 274.336 86.3361 273.412 86.5443Z" fill="#E98862"/>
<path opacity="0.52" d="M279.138 82.5504C279.362 81.8277 279.507 81.0826 279.569 80.3284C279.726 78.6075 279.695 76.8745 279.475 75.1604C282.385 74.7677 285.126 73.5666 287.388 71.6936C287.654 72.6754 289.116 76.9654 288.711 77.8985C287.946 79.6624 284.35 82.5504 279.138 82.5504Z" fill="#0C0C0C"/>
<path d="M281.036 78.9006C286.686 79.3813 293.963 77.0389 295.389 69.5053L296.675 62.7074C298.101 55.1735 295.3 48.3182 288.207 46.9748C281.114 45.6324 274.656 50.7364 273.23 58.2703L272.661 61.2796C272.113 64.1705 270.954 78.0426 281.036 78.9006Z" fill="#E98862"/>
<path d="M274.681 61.6078C275.172 61.6078 275.57 61.2097 275.57 60.7186C275.57 60.2276 275.172 59.8295 274.681 59.8295C274.19 59.8295 273.792 60.2276 273.792 60.7186C273.792 61.2097 274.19 61.6078 274.681 61.6078Z" fill="#0C0C0C"/>
<path d="M283.791 62.8245C284.282 62.8245 284.68 62.4265 284.68 61.9354C284.68 61.4443 284.282 61.0463 283.791 61.0463C283.3 61.0463 282.902 61.4443 282.902 61.9354C282.902 62.4265 283.3 62.8245 283.791 62.8245Z" fill="#0C0C0C"/>
<path d="M278.792 68.4544C278.787 68.4541 278.783 68.4535 278.778 68.4525C278.491 68.3958 278.207 68.3234 277.927 68.2357C277.51 68.1017 276.964 67.8795 277.036 67.5035C277.117 67.0744 279.169 62.6647 279.403 62.1639C279.424 62.1201 279.461 62.0862 279.506 62.0696C279.551 62.0531 279.602 62.0552 279.645 62.0756C279.689 62.096 279.723 62.133 279.74 62.1784C279.756 62.2238 279.754 62.2739 279.734 62.3177C278.858 64.1959 277.449 67.2839 277.394 67.5704C277.441 67.7044 278.133 67.9588 278.846 68.0941C278.893 68.1024 278.935 68.1286 278.962 68.1671C278.99 68.2056 279.002 68.2533 278.995 68.3002C278.988 68.3471 278.963 68.3894 278.925 68.4182C278.887 68.4469 278.84 68.4598 278.793 68.4541L278.792 68.4544Z" fill="#0C0C0C"/>
<path d="M279.842 71.7073C278.685 71.557 277.579 71.1369 276.614 70.481C276.574 70.4546 276.546 70.4133 276.536 70.366C276.526 70.3187 276.535 70.2694 276.561 70.2289C276.588 70.1884 276.629 70.1601 276.676 70.1501C276.724 70.1401 276.773 70.1493 276.813 70.1757C278.901 71.5363 280.977 71.7563 282.814 70.8124C282.851 70.7921 282.889 70.7739 282.928 70.758C282.974 70.7416 283.024 70.7439 283.067 70.7644C283.111 70.7849 283.145 70.8219 283.161 70.8673C283.178 70.9128 283.175 70.9628 283.155 71.0066C283.134 71.0503 283.097 71.0841 283.052 71.1005C283.038 71.1066 283.013 71.1193 282.98 71.1365C282.014 71.6347 280.922 71.8335 279.842 71.7073V71.7073Z" fill="#0C0C0C"/>
<path d="M302.35 65.0765L295.991 63.9107C291.175 61.9618 289.719 53.625 289.719 53.625C289.719 53.625 283.87 59.3266 269.696 56.0839C269.696 56.0839 272.538 36.3148 293.481 42.0628C300.233 43.9165 305.08 50.7217 304.476 59.8162C304.051 66.1897 302.35 65.0765 302.35 65.0765Z" fill="#0A0A0A"/>
<path d="M294.514 71.7171C296.669 72.1249 298.853 70.1496 299.261 67.9925C299.669 65.8354 298.147 64.3172 295.991 63.9094L294.607 65.1436L292.66 71.365L294.514 71.7171Z" fill="#E98862"/>
<path d="M278.103 58.5603C277.475 58.1542 276.748 57.9249 276 57.8963C275.632 57.8799 275.264 57.9188 274.907 58.0118C274.554 58.1026 274.213 58.2374 273.894 58.4133C273.853 58.4378 273.823 58.4767 273.809 58.5224C273.795 58.5681 273.799 58.6172 273.82 58.6601C273.841 58.703 273.877 58.7366 273.921 58.7543C273.965 58.772 274.015 58.7726 274.059 58.7558L274.073 58.7498C274.368 58.6052 274.68 58.4983 275.002 58.4314C275.321 58.3632 275.648 58.3437 275.972 58.3735C276.615 58.4271 277.233 58.6502 277.762 59.02L277.779 59.0324C277.809 59.0576 277.844 59.0763 277.882 59.0873C277.919 59.0984 277.959 59.1016 277.998 59.0967C278.037 59.0919 278.074 59.0791 278.108 59.0591C278.142 59.0391 278.171 59.0124 278.194 58.9806C278.217 58.9488 278.234 58.9126 278.242 58.8743C278.251 58.8359 278.251 58.7963 278.244 58.7577C278.236 58.7192 278.221 58.6826 278.198 58.6502C278.176 58.6179 278.148 58.5904 278.114 58.5696L278.103 58.5603Z" fill="#0C0C0C"/>
<path d="M283.774 59.8954C284.401 59.7421 285.058 59.7572 285.677 59.939C285.99 60.0286 286.288 60.1651 286.56 60.3437C286.836 60.5227 287.088 60.7357 287.311 60.9778L287.321 60.988C287.357 61.0197 287.403 61.0371 287.451 61.0366C287.498 61.0361 287.544 61.0178 287.579 60.9853C287.614 60.9528 287.635 60.9084 287.639 60.8609C287.643 60.8134 287.629 60.7662 287.6 60.7285C287.365 60.4493 287.096 60.2006 286.8 59.9884C286.501 59.7728 286.171 59.6032 285.822 59.4854C285.114 59.2419 284.354 59.1934 283.621 59.345C283.551 59.365 283.491 59.4107 283.454 59.4731C283.417 59.5354 283.404 59.6096 283.419 59.6807C283.435 59.7517 283.476 59.8143 283.536 59.8558C283.596 59.8973 283.669 59.9145 283.741 59.904L283.753 59.9012L283.774 59.8954Z" fill="#0C0C0C"/>
<path d="M279.596 73.4178C279.387 73.3939 279.179 73.3522 278.977 73.2933C278.93 73.2799 278.891 73.2486 278.868 73.2063C278.844 73.164 278.839 73.1142 278.852 73.0678C278.865 73.0213 278.897 72.9821 278.939 72.9587C278.981 72.9354 279.031 72.9297 279.078 72.9431C280.297 73.2933 280.99 72.8292 281.02 72.8091C281.059 72.7813 281.108 72.7704 281.156 72.7787C281.203 72.7871 281.246 72.814 281.273 72.8535C281.301 72.8931 281.312 72.942 281.304 72.9896C281.295 73.0373 281.269 73.0796 281.229 73.1074C280.737 73.3963 280.16 73.506 279.596 73.4178V73.4178Z" fill="#0C0C0C"/>
<path d="M295.977 63.8302L296.041 63.6542C287.984 60.762 289.954 52.8556 289.975 52.7761L289.794 52.7286C289.772 52.8098 287.757 60.8792 295.977 63.8302Z" fill="#0C0C0C"/>
<path opacity="0.1" d="M286.325 67.9546C286.399 67.2723 285.704 66.6381 284.774 66.538C283.844 66.4379 283.03 66.9099 282.957 67.5922C282.883 68.2744 283.578 68.9087 284.508 69.0087C285.438 69.1088 286.252 68.6369 286.325 67.9546Z" fill="#0C0C0C"/>
<path opacity="0.1" d="M274.663 66.3992C274.588 67.0805 273.774 67.552 272.844 67.4529C272.684 67.4358 272.525 67.4019 272.371 67.3517C272.319 66.5409 272.308 65.76 272.323 65.038C272.58 64.9705 272.847 64.9517 273.111 64.9826C274.04 65.0813 274.736 65.7154 274.663 66.3992Z" fill="#0C0C0C"/>
<path d="M256.674 112.076C257.098 117.062 259.162 148.049 259.57 154.191L313.557 154.306C313.875 148.766 317.545 124.549 318.749 113.719C319.899 103.384 322.156 98.2095 320.5 95.154C317.798 90.1605 310.414 87.275 305.379 86.5931C302.305 86.1771 297.68 85.8788 297.68 85.8788C297.68 85.8788 297.289 93.7988 287.953 94.2398C275.245 94.8392 276.093 85.8788 276.03 85.8788C273.972 85.8788 262.211 87.1817 259.333 88.8874C251.494 93.5292 255.773 101.511 256.674 112.076Z" fill="#367CFF"/>
<path d="M221.631 115.559L226.835 140.852C226.941 141.366 227.219 141.827 227.624 142.161C228.029 142.494 228.536 142.678 229.061 142.682L264.894 142.987C265.235 142.99 265.574 142.916 265.883 142.772C266.193 142.627 266.467 142.415 266.684 142.151C266.901 141.887 267.056 141.578 267.138 141.246C267.22 140.914 267.227 140.568 267.158 140.233L261.954 114.94C261.849 114.426 261.57 113.964 261.165 113.631C260.76 113.298 260.253 113.114 259.729 113.11L223.896 112.805C223.554 112.802 223.216 112.875 222.906 113.02C222.596 113.165 222.323 113.377 222.106 113.641C221.889 113.905 221.733 114.214 221.651 114.546C221.569 114.878 221.562 115.224 221.631 115.559Z" fill="#292A2E"/>
<path d="M255.045 133.525C255.026 133.858 255.127 134.187 255.332 134.45C255.536 134.714 255.828 134.895 256.155 134.961L257.258 135.204C257.239 135.21 257.221 135.222 257.206 135.237C257.192 135.252 257.182 135.27 257.176 135.29C257.173 135.313 257.179 135.337 257.191 135.357C256.926 135.432 256.69 135.587 256.517 135.801C256.345 136.016 256.243 136.279 256.226 136.554C256.225 136.874 256.331 137.186 256.529 137.438C256.726 137.691 257.003 137.869 257.314 137.945L266.629 140.014C267.105 140.12 267.592 140.174 268.08 140.173C269.167 140.173 270.238 139.909 271.2 139.402C272.162 138.896 272.987 138.164 273.603 137.268C274.256 136.32 274.514 135.155 274.321 134.02C274.128 132.885 273.501 131.87 272.571 131.191L264.647 125.397C264.473 125.27 264.27 125.186 264.057 125.154L264.786 128.695L264.591 128.65L264.55 128.643L258.473 127.407C257.797 127.258 256.869 127.503 256.75 128.275C256.685 128.57 256.723 128.878 256.856 129.148C256.989 129.419 257.209 129.637 257.482 129.767C257.478 129.77 257.47 129.774 257.47 129.782C257.47 129.79 257.474 129.793 257.474 129.8L256.424 129.569C256.232 129.526 256.032 129.527 255.841 129.57C255.649 129.614 255.469 129.7 255.314 129.821C255.159 129.943 255.033 130.097 254.945 130.273C254.857 130.449 254.81 130.642 254.805 130.839C254.805 131.153 254.914 131.458 255.113 131.701C255.312 131.945 255.589 132.112 255.897 132.174L256.349 132.275C256.353 132.29 256.349 132.305 256.357 132.316C256.027 132.319 255.71 132.444 255.467 132.667C255.225 132.891 255.074 133.196 255.045 133.525V133.525Z" fill="#E98862"/>
<g opacity="0.25">
<path d="M263.524 131.028C263.517 131.059 263.498 131.086 263.471 131.104C263.444 131.121 263.412 131.127 263.38 131.121L257.566 129.928C257.55 129.926 257.534 129.919 257.521 129.911C257.507 129.902 257.495 129.89 257.486 129.876C257.477 129.863 257.47 129.848 257.467 129.831C257.464 129.815 257.464 129.799 257.467 129.783C257.47 129.767 257.477 129.751 257.486 129.738C257.495 129.724 257.507 129.713 257.521 129.704C257.535 129.695 257.55 129.689 257.567 129.686C257.583 129.684 257.599 129.684 257.615 129.688L263.43 130.88C263.445 130.883 263.46 130.89 263.474 130.899C263.487 130.908 263.499 130.919 263.507 130.933C263.516 130.946 263.522 130.961 263.525 130.977C263.528 130.993 263.528 131.009 263.525 131.025L263.524 131.028Z" fill="#0C0C0C"/>
</g>
<g opacity="0.25">
<path d="M263.07 133.607C263.062 133.638 263.043 133.665 263.016 133.682C262.989 133.7 262.956 133.706 262.925 133.699L256.436 132.369C256.42 132.366 256.405 132.359 256.392 132.35C256.379 132.341 256.367 132.33 256.358 132.316C256.35 132.303 256.343 132.288 256.34 132.272C256.337 132.256 256.337 132.24 256.341 132.224C256.348 132.193 256.367 132.165 256.394 132.148C256.421 132.13 256.454 132.123 256.486 132.128L262.974 133.459C263.006 133.466 263.034 133.485 263.052 133.512C263.07 133.539 263.076 133.572 263.07 133.604L263.07 133.607Z" fill="#0C0C0C"/>
</g>
<g opacity="0.25">
<path d="M262.592 136.403C262.585 136.434 262.566 136.461 262.539 136.478C262.512 136.496 262.479 136.502 262.448 136.496L257.272 135.434C257.24 135.427 257.213 135.408 257.195 135.381C257.178 135.354 257.172 135.321 257.178 135.289C257.185 135.258 257.203 135.23 257.23 135.212C257.257 135.194 257.29 135.187 257.322 135.193L262.497 136.255C262.529 136.261 262.557 136.28 262.575 136.308C262.593 136.335 262.599 136.368 262.593 136.4L262.592 136.403Z" fill="#0C0C0C"/>
</g>
<path d="M267.206 143.698L317.742 152.831C319.319 153.003 320.914 152.806 322.403 152.258C323.891 151.71 325.233 150.824 326.321 149.67C327.41 148.516 328.216 147.125 328.677 145.608C329.138 144.09 329.241 142.486 328.978 140.921L321.903 98.8681C321.683 97.5354 321.202 96.2592 320.487 95.1127C319.773 93.9662 318.84 92.9719 317.74 92.1868C316.641 91.4017 315.398 90.8412 314.082 90.5375C312.765 90.2338 311.402 90.1928 310.07 90.4169C308.738 90.6409 307.463 91.1257 306.319 91.8433C305.174 92.561 304.183 93.4974 303.401 94.5989C302.619 95.7005 302.063 96.9455 301.763 98.2626C301.463 99.5797 301.426 100.943 301.654 102.274L306.48 131.224L269.428 126.571L267.206 143.698Z" fill="#367CFF"/>
<path d="M317.742 153.018C317.789 153.018 317.833 153 317.867 152.968C317.901 152.936 317.922 152.893 317.926 152.847C317.93 152.801 317.917 152.755 317.889 152.718C317.861 152.681 317.82 152.655 317.774 152.647L267.412 143.546L269.587 126.78L306.452 131.41C306.481 131.414 306.51 131.411 306.538 131.401C306.566 131.391 306.591 131.375 306.611 131.354C306.631 131.333 306.646 131.308 306.654 131.28C306.663 131.252 306.665 131.223 306.661 131.195L303.596 112.693C303.592 112.669 303.584 112.646 303.571 112.625C303.558 112.604 303.541 112.586 303.521 112.571C303.501 112.557 303.478 112.547 303.454 112.541C303.43 112.536 303.405 112.535 303.381 112.54C303.332 112.548 303.288 112.575 303.26 112.616C303.231 112.656 303.219 112.706 303.227 112.755L306.251 131.009L269.451 126.387C269.402 126.382 269.353 126.395 269.314 126.425C269.274 126.456 269.249 126.5 269.242 126.549L267.02 143.676C267.014 143.723 267.027 143.771 267.055 143.81C267.083 143.849 267.125 143.875 267.173 143.884L317.709 153.015C317.72 153.017 317.731 153.018 317.742 153.018V153.018Z" fill="#0C0C0C"/>
<path d="M306.509 131.041L306.45 131.411L309.701 131.931L309.76 131.562L306.509 131.041Z" fill="#0C0C0C"/>
<path d="M351.564 287.994H4.435C4.3759 287.994 4.31922 287.97 4.27743 287.928C4.23564 287.887 4.21216 287.83 4.21216 287.771C4.21216 287.712 4.23564 287.655 4.27743 287.613C4.31922 287.571 4.3759 287.548 4.435 287.548H351.564C351.623 287.548 351.679 287.571 351.721 287.613C351.763 287.655 351.786 287.712 351.786 287.771C351.786 287.83 351.763 287.887 351.721 287.928C351.679 287.97 351.623 287.994 351.564 287.994H351.564Z" fill="#292A2E"/>
<g opacity="0.65">
<path d="M351.564 287.994H4.435C4.3759 287.994 4.31922 287.97 4.27743 287.928C4.23564 287.887 4.21216 287.83 4.21216 287.771C4.21216 287.712 4.23564 287.655 4.27743 287.613C4.31922 287.571 4.3759 287.548 4.435 287.548H351.564C351.623 287.548 351.679 287.571 351.721 287.613C351.763 287.655 351.786 287.712 351.786 287.771C351.786 287.83 351.763 287.887 351.721 287.928C351.679 287.97 351.623 287.994 351.564 287.994H351.564Z" fill="#292A2E"/>
</g>
<path d="M25.7815 288.182L25.1562 288.062L34.9281 190.957L35.5534 191.077L25.7815 288.182Z" fill="#494949"/>
<path d="M62.1677 288.182L61.5425 288.062L71.314 190.957L71.9393 191.077L62.1677 288.182Z" fill="#494949"/>
<path d="M142.597 288.182L143.222 288.062L133.45 190.957L132.825 191.077L142.597 288.182Z" fill="#494949"/>
<path d="M106.211 288.182L106.836 288.062L97.0642 190.957L96.439 191.077L106.211 288.182Z" fill="#494949"/>
<path d="M93.2514 148.221L92.6204 148.305L98.3289 191.06L98.96 190.976L93.2514 148.221Z" fill="#494949"/>
<path d="M27.7283 148.221L27.0972 148.305L32.8057 191.06L33.4368 190.976L27.7283 148.221Z" fill="#494949"/>
<path d="M98.9054 187.886H34.8165C33.0873 187.886 31.6855 189.288 31.6855 191.017V191.018C31.6855 192.747 33.0873 194.148 34.8165 194.148H98.9054C100.635 194.148 102.036 192.747 102.036 191.018V191.017C102.036 189.288 100.635 187.886 98.9054 187.886Z" fill="#292A2E"/>
<path opacity="0.8" d="M98.9054 187.886H34.8165C33.0873 187.886 31.6855 189.288 31.6855 191.017V191.018C31.6855 192.747 33.0873 194.148 34.8165 194.148H98.9054C100.635 194.148 102.036 192.747 102.036 191.018V191.017C102.036 189.288 100.635 187.886 98.9054 187.886Z" fill="white"/>
<path d="M98.9054 194.466H34.8164C34.3635 194.466 33.915 194.377 33.4965 194.204C33.078 194.031 32.6977 193.776 32.3774 193.456C32.0572 193.136 31.8031 192.756 31.6297 192.337C31.4564 191.919 31.3672 191.47 31.3672 191.017C31.3672 190.564 31.4564 190.116 31.6297 189.697C31.8031 189.279 32.0572 188.898 32.3774 188.578C32.6977 188.258 33.078 188.004 33.4965 187.83C33.915 187.657 34.3635 187.568 34.8164 187.568H98.9054C99.8202 187.568 100.698 187.931 101.344 188.578C101.991 189.225 102.355 190.102 102.355 191.017C102.355 191.932 101.991 192.809 101.344 193.456C100.698 194.103 99.8202 194.466 98.9054 194.466ZM34.8164 188.205C34.4471 188.205 34.0814 188.278 33.7401 188.419C33.3989 188.56 33.0888 188.768 32.8277 189.029C32.5665 189.29 32.3593 189.6 32.218 189.941C32.0766 190.282 32.0039 190.648 32.0039 191.017C32.0039 191.387 32.0766 191.753 32.218 192.094C32.3593 192.435 32.5665 192.745 32.8277 193.006C33.0888 193.267 33.3989 193.475 33.7401 193.616C34.0814 193.757 34.4471 193.83 34.8164 193.83H98.9054C99.6514 193.83 100.367 193.534 100.894 193.006C101.422 192.479 101.718 191.763 101.718 191.017C101.718 190.272 101.422 189.556 100.894 189.029C100.367 188.501 99.6514 188.205 98.9054 188.205H34.8164Z" fill="#292A2E"/>
<path d="M134.081 187.886H69.9917C68.2626 187.886 66.8608 189.288 66.8608 191.017V191.018C66.8608 192.747 68.2626 194.148 69.9917 194.148H134.081C135.81 194.148 137.212 192.747 137.212 191.018V191.017C137.212 189.288 135.81 187.886 134.081 187.886Z" fill="white"/>
<path d="M134.081 194.466H69.9917C69.5388 194.466 69.0902 194.377 68.6718 194.204C68.2533 194.031 67.873 193.776 67.5527 193.456C67.2324 193.136 66.9784 192.756 66.805 192.337C66.6317 191.919 66.5425 191.47 66.5425 191.017C66.5425 190.564 66.6317 190.116 66.805 189.697C66.9784 189.279 67.2324 188.898 67.5527 188.578C67.873 188.258 68.2533 188.004 68.6718 187.83C69.0902 187.657 69.5388 187.568 69.9917 187.568H134.081C134.534 187.568 134.982 187.657 135.401 187.83C135.819 188.004 136.199 188.258 136.52 188.578C136.84 188.898 137.094 189.279 137.267 189.697C137.441 190.116 137.53 190.564 137.53 191.017C137.53 191.47 137.441 191.919 137.267 192.337C137.094 192.756 136.84 193.136 136.52 193.456C136.199 193.776 135.819 194.031 135.401 194.204C134.982 194.377 134.534 194.466 134.081 194.466V194.466ZM69.9917 188.205C69.6224 188.205 69.2566 188.278 68.9154 188.419C68.5742 188.56 68.2641 188.768 68.0029 189.029C67.7418 189.29 67.5346 189.6 67.3933 189.941C67.2519 190.282 67.1792 190.648 67.1792 191.017C67.1792 191.387 67.2519 191.753 67.3933 192.094C67.5346 192.435 67.7418 192.745 68.0029 193.006C68.2641 193.267 68.5742 193.475 68.9154 193.616C69.2566 193.757 69.6224 193.83 69.9917 193.83H134.081C134.45 193.83 134.816 193.757 135.157 193.616C135.498 193.475 135.808 193.267 136.07 193.006C136.331 192.745 136.538 192.435 136.679 192.094C136.821 191.753 136.893 191.387 136.893 191.017C136.893 190.648 136.821 190.282 136.679 189.941C136.538 189.6 136.331 189.29 136.07 189.029C135.808 188.768 135.498 188.56 135.157 188.419C134.816 188.278 134.45 188.205 134.081 188.205H69.9917Z" fill="#292A2E"/>
<path d="M89.7405 148.262H27.5849C26.5686 148.262 25.5871 147.892 24.8235 147.222C24.06 146.551 23.5665 145.626 23.4352 144.618L19.3238 113.044C19.247 112.454 19.2969 111.854 19.4703 111.285C19.6437 110.715 19.9365 110.189 20.3293 109.742C20.722 109.295 21.2056 108.937 21.7478 108.691C22.29 108.446 22.8783 108.319 23.4734 108.319H85.6291C86.6453 108.319 87.6268 108.689 88.3904 109.359C89.154 110.03 89.6475 110.955 89.7787 111.963L93.8898 143.536C93.9669 144.127 93.9171 144.727 93.7438 145.296C93.5705 145.866 93.2778 146.391 92.885 146.839C92.4923 147.286 92.0087 147.644 91.4664 147.89C90.9242 148.135 90.3358 148.262 89.7405 148.262V148.262Z" fill="#292A2E"/>
<path opacity="0.8" d="M89.7405 148.262H27.5849C26.5686 148.262 25.5871 147.892 24.8235 147.222C24.06 146.551 23.5665 145.626 23.4352 144.618L19.3238 113.044C19.247 112.454 19.2969 111.854 19.4703 111.285C19.6437 110.715 19.9365 110.189 20.3293 109.742C20.722 109.295 21.2056 108.937 21.7478 108.691C22.29 108.446 22.8783 108.319 23.4734 108.319H85.6291C86.6453 108.319 87.6268 108.689 88.3904 109.359C89.154 110.03 89.6475 110.955 89.7787 111.963L93.8898 143.536C93.9669 144.127 93.9171 144.727 93.7438 145.296C93.5705 145.866 93.2778 146.391 92.885 146.839C92.4923 147.286 92.0087 147.644 91.4664 147.89C90.9242 148.135 90.3358 148.262 89.7405 148.262V148.262Z" fill="white"/>
<path d="M89.7406 148.581H27.585C26.4921 148.578 25.4372 148.179 24.616 147.458C23.7948 146.737 23.2631 145.742 23.1196 144.659L19.0085 113.086C18.9257 112.451 18.9794 111.806 19.1659 111.193C19.3524 110.58 19.6675 110.014 20.0901 109.533C20.5127 109.052 21.0331 108.666 21.6165 108.402C22.2 108.138 22.8331 108.001 23.4736 108.001H85.6292C86.7221 108.004 87.777 108.403 88.5982 109.124C89.4193 109.845 89.9509 110.84 90.0943 111.923L94.2057 143.496C94.2885 144.132 94.2348 144.777 94.0482 145.39C93.8617 146.002 93.5466 146.568 93.124 147.049C92.7014 147.53 92.181 147.916 91.5976 148.18C91.0141 148.444 90.3811 148.581 89.7406 148.581V148.581ZM23.4736 108.638C22.9237 108.638 22.3801 108.755 21.8792 108.982C21.3783 109.209 20.9315 109.54 20.5686 109.953C20.2058 110.366 19.9352 110.852 19.7751 111.378C19.6149 111.904 19.5688 112.458 19.6397 113.004L23.7512 144.577C23.8743 145.507 24.3308 146.361 25.0358 146.98C25.7409 147.6 26.6466 147.942 27.585 147.944H89.7406C90.2905 147.944 90.8341 147.827 91.335 147.6C91.8359 147.373 92.2827 147.042 92.6456 146.629C93.0084 146.216 93.279 145.73 93.4391 145.204C93.5993 144.678 93.6455 144.124 93.5745 143.579L89.4646 112.005C89.3414 111.075 88.8849 110.221 88.1799 109.602C87.4749 108.983 86.5692 108.64 85.6308 108.638H23.4736Z" fill="#292A2E"/>
<path d="M93.2554 148.262H31.0997C30.0835 148.262 29.102 147.892 28.3385 147.222C27.575 146.551 27.0816 145.626 26.9504 144.618L22.839 113.044C22.7621 112.454 22.8121 111.854 22.9855 111.285C23.1588 110.715 23.4517 110.189 23.8444 109.742C24.2371 109.295 24.7207 108.937 25.2629 108.691C25.8051 108.446 26.3934 108.319 26.9886 108.319H89.1443C90.1604 108.319 91.1419 108.689 91.9054 109.359C92.669 110.03 93.1624 110.955 93.2936 111.963L97.405 143.536C97.482 144.127 97.4321 144.727 97.2588 145.296C97.0855 145.866 96.7927 146.391 96.3999 146.839C96.0072 147.286 95.5235 147.644 94.9813 147.89C94.439 148.135 93.8506 148.262 93.2554 148.262Z" fill="white"/>
<path d="M93.2552 148.581H31.0995C30.0067 148.578 28.9518 148.179 28.1307 147.458C27.3096 146.737 26.7779 145.742 26.6344 144.659L22.523 113.086C22.4404 112.451 22.4941 111.805 22.6807 111.193C22.8673 110.58 23.1824 110.014 23.605 109.533C24.0276 109.052 24.548 108.666 25.1315 108.402C25.7149 108.138 26.348 108.001 26.9884 108.001H89.1438C90.2367 108.004 91.2916 108.403 92.1128 109.124C92.9339 109.845 93.4656 110.84 93.6092 111.923L97.7206 143.496C97.8032 144.132 97.7495 144.777 97.5629 145.39C97.3763 146.002 97.0611 146.568 96.6385 147.049C96.2159 147.53 95.6955 147.916 95.1121 148.18C94.5287 148.444 93.8956 148.581 93.2552 148.581V148.581ZM26.9884 108.638C26.4385 108.638 25.8948 108.755 25.3938 108.982C24.8927 109.209 24.4458 109.54 24.0829 109.953C23.7199 110.366 23.4493 110.852 23.2891 111.378C23.1288 111.904 23.0827 112.459 23.1537 113.004L27.2648 144.577C27.3881 145.507 27.8447 146.361 28.5499 146.98C29.2551 147.6 30.161 147.942 31.0995 147.944H93.2552C93.8051 147.944 94.3486 147.827 94.8496 147.6C95.3505 147.373 95.7973 147.042 96.1601 146.629C96.523 146.216 96.7935 145.73 96.9537 145.204C97.1139 144.678 97.16 144.124 97.089 143.579L92.9776 112.005C92.8545 111.075 92.398 110.221 91.6929 109.602C90.9879 108.983 90.0822 108.64 89.1438 108.638H26.9884Z" fill="#292A2E"/>
<path d="M86.4038 59.6068C86.4038 59.6068 90.5343 56.4893 91.5578 49.3132C92.3501 43.7568 87.2248 47.3567 87.2248 47.3567C87.2248 47.3567 87.7564 43.3503 84.8372 43.7479C81.918 44.1455 80.2849 48.354 80.2849 48.354" fill="#0C0C0C"/>
<path d="M69.7509 44.2181C69.7509 44.2181 55.2681 45.771 60.5036 65.3962L61.785 65.4819L64.3865 65.6563" fill="#0C0C0C"/>
<path d="M83.9781 85.8893C83.9144 85.881 83.208 97.6043 69.5874 96.5834C60.158 95.877 56.7957 85.8727 56.5798 85.8727C57.5963 85.6566 58.8528 85.3287 59.352 85.216C60.4402 84.9634 61.4258 84.3855 62.1776 83.5591C62.9294 82.7328 63.4117 81.697 63.5605 80.5898C63.8362 78.9281 63.3695 70.4257 63.5124 68.7446L77.9865 71.9777C77.7841 75.5288 76.3687 83.7615 81.3292 85.2185C82.1556 85.4579 83.0447 85.6798 83.9781 85.8893Z" fill="#E98862"/>
<path opacity="0.52" d="M78.1892 81.8523C77.9625 81.1217 77.8165 80.3685 77.754 79.6061C77.5951 77.8662 77.6272 76.1141 77.8495 74.3811C74.9077 73.984 72.1362 72.7698 69.8499 70.8765C69.5809 71.8691 68.1028 76.2059 68.5128 77.1494C69.2848 78.9325 72.92 81.8523 78.1892 81.8523Z" fill="#0C0C0C"/>
<path d="M75.2026 79.5319C69.4924 79.02 62.6579 75.4119 62.5592 67.6609L62.4688 60.6669C62.3701 52.9155 66.3615 46.5802 73.6596 46.4875C80.9576 46.3946 86.4926 52.609 86.5913 60.36L86.6305 63.4565C86.6256 64.5198 86.5481 65.5815 86.3987 66.6342C86.0244 69.4197 85.4437 73.6547 83.5534 76.5198C81.7694 79.2244 78.8502 79.8592 75.2026 79.5319Z" fill="#E98862"/>
<path d="M77.8511 72.4468C79.0296 72.5002 80.2041 72.2759 81.28 71.792C81.3022 71.7825 81.3224 71.7687 81.3393 71.7514C81.3562 71.7342 81.3695 71.7137 81.3785 71.6913C81.3876 71.6689 81.3921 71.6449 81.3918 71.6207C81.3916 71.5965 81.3865 71.5726 81.3771 71.5504C81.3676 71.5281 81.3538 71.508 81.3365 71.4911C81.3192 71.4741 81.2988 71.4608 81.2763 71.4518C81.2539 71.4428 81.2299 71.4383 81.2057 71.4385C81.1816 71.4388 81.1577 71.4438 81.1354 71.4533C78.8176 72.4401 76.713 72.2969 75.0493 71.035C75.0158 71.0084 74.981 70.9835 74.9449 70.9605C74.9031 70.9408 74.8554 70.9376 74.8112 70.9514C74.7671 70.9653 74.7298 70.9952 74.7067 71.0353C74.6837 71.0753 74.6765 71.1226 74.6866 71.1677C74.6968 71.2129 74.7235 71.2525 74.7615 71.2788C74.7749 71.2874 74.7966 71.3043 74.8252 71.3272C75.6998 71.9935 76.7534 72.3834 77.8511 72.4468V72.4468Z" fill="#0C0C0C"/>
<path d="M77.7963 74.1933C78.0093 74.2063 78.2229 74.2012 78.4349 74.178C78.4825 74.1716 78.5257 74.1469 78.5553 74.1091C78.5849 74.0714 78.5986 74.0235 78.5935 73.9758C78.5884 73.9281 78.5649 73.8842 78.528 73.8536C78.4911 73.8229 78.4436 73.8079 78.3958 73.8116C77.1205 73.9472 76.5115 73.3628 76.4857 73.3379C76.4509 73.3049 76.4046 73.2868 76.3566 73.2874C76.3086 73.288 76.2628 73.3072 76.2288 73.3411C76.1948 73.375 76.1754 73.4208 76.1746 73.4687C76.1738 73.5167 76.1918 73.5631 76.2247 73.598C76.6641 73.972 77.2194 74.1823 77.7963 74.1933V74.1933Z" fill="#0C0C0C"/>
<path d="M84.182 64.947C84.6785 64.947 85.081 64.5445 85.081 64.048C85.081 63.5515 84.6785 63.149 84.182 63.149C83.6855 63.149 83.283 63.5515 83.283 64.048C83.283 64.5445 83.6855 64.947 84.182 64.947Z" fill="#0C0C0C"/>
<path d="M75.3992 64.3957C75.8957 64.3957 76.2982 63.9932 76.2982 63.4967C76.2982 63.0002 75.8957 62.5977 75.3992 62.5977C74.9027 62.5977 74.5002 63.0002 74.5002 63.4967C74.5002 63.9932 74.9027 64.3957 75.3992 64.3957Z" fill="#0C0C0C"/>
<path d="M63.0419 70.0163C60.8244 70.0447 58.9961 67.6946 58.9671 65.4771C58.9382 63.2595 60.7215 62.0132 62.9394 61.9848L64.1011 63.4565L64.9482 69.9921L63.0419 70.0163Z" fill="#E98862"/>
<path d="M65.2485 66.4524C65.2485 66.4524 65.9972 55.4845 69.3233 54.8074C71.5383 54.3563 76.9097 57.4981 81.8851 56.5494C84.0617 56.1356 86.128 56.6729 86.3381 57.7012C86.4215 58.1083 87.7774 52.2575 84.3689 47.8182C81.655 44.2846 72.7741 43.285 68.7337 44.4437C57.5458 47.653 62.4827 62.4674 62.4827 62.4674L62.9816 66.2487L65.2485 66.4524Z" fill="#0C0C0C"/>
<path d="M79.1921 69.8586H79.2061C79.9208 69.8513 81.119 69.7596 81.1142 69.2248C81.1095 68.782 79.8485 64.0119 79.7046 63.4695C79.6922 63.4228 79.6618 63.3829 79.6201 63.3587C79.5783 63.3344 79.5286 63.3277 79.4819 63.3401C79.4352 63.3524 79.3954 63.3828 79.3711 63.4246C79.3468 63.4664 79.3402 63.5161 79.3525 63.5627C79.9128 65.6753 80.7469 68.9275 80.7501 69.2293C80.681 69.3566 79.9427 69.4874 79.2029 69.4951C79.1555 69.4951 79.11 69.5135 79.076 69.5465C79.042 69.5795 79.0222 69.6244 79.0208 69.6718C79.0194 69.7191 79.0365 69.7651 79.0685 69.8001C79.1005 69.835 79.1448 69.8562 79.1921 69.859V69.8586Z" fill="#0C0C0C"/>
<path d="M81.6303 59.1734C82.3815 58.9669 83.1744 58.9669 83.9256 59.1734C84.2945 59.2728 84.6465 59.4269 84.9698 59.6306C85.2892 59.8302 85.5821 60.0694 85.8417 60.3424C85.8896 60.391 85.9168 60.4563 85.9178 60.5245C85.9188 60.5927 85.8935 60.6587 85.8471 60.7088C85.8007 60.7588 85.7367 60.789 85.6686 60.7931C85.6005 60.7972 85.5334 60.7749 85.4813 60.7308L85.4654 60.7168C85.225 60.4944 84.9576 60.303 84.6696 60.1472C84.3869 59.9925 84.0824 59.8814 83.7664 59.8178C83.1445 59.6875 82.4991 59.7235 81.8955 59.9222L81.8704 59.9311C81.8211 59.9485 81.7688 59.9561 81.7166 59.9533C81.6643 59.9505 81.6132 59.9375 81.566 59.915C81.5188 59.8924 81.4765 59.8608 81.4415 59.8219C81.4065 59.7831 81.3796 59.7377 81.3621 59.6884C81.3447 59.639 81.3371 59.5868 81.3399 59.5346C81.3427 59.4823 81.3557 59.4312 81.3782 59.384C81.4008 59.3368 81.4324 59.2945 81.4713 59.2595C81.5102 59.2245 81.5556 59.1975 81.6049 59.1801C81.6135 59.1782 81.6224 59.1757 81.6303 59.1734Z" fill="#0C0C0C"/>
<path d="M76.3116 59.6258C75.7399 59.3481 75.1051 59.2263 74.4712 59.2728C74.1497 59.2937 73.8332 59.3633 73.5324 59.4791C73.2265 59.5953 72.9363 59.7494 72.6688 59.9378L72.6516 59.949C72.5942 59.9878 72.5239 60.0026 72.4557 59.9902C72.3876 59.9778 72.327 59.9392 72.2869 59.8826C72.2469 59.826 72.2307 59.7561 72.2416 59.6876C72.2526 59.6192 72.29 59.5578 72.3457 59.5167C72.6393 59.2805 72.9616 59.0824 73.3048 58.9271C73.6524 58.7683 74.0217 58.6625 74.4006 58.6132C75.1725 58.5083 75.9584 58.6137 76.6755 58.9182C76.7725 58.9604 76.8489 59.0394 76.8877 59.1379C76.9265 59.2364 76.9246 59.3463 76.8824 59.4434C76.8402 59.5405 76.7611 59.6169 76.6626 59.6557C76.5641 59.6945 76.4542 59.6926 76.3571 59.6504C76.3495 59.6472 76.3422 59.6437 76.3348 59.6398L76.3116 59.6258Z" fill="#0C0C0C"/>
<path d="M80.5614 51.6229C82.2031 51.2799 83.1247 49.043 82.6198 46.6267C82.115 44.2104 80.3749 42.5297 78.7332 42.8727C77.0916 43.2157 76.17 45.4525 76.6748 47.8688C77.1797 50.2851 78.9197 51.9658 80.5614 51.6229Z" fill="#0C0C0C"/>
<path d="M172.122 271.361C172.122 271.361 173.829 280.209 182.113 280.702C190.397 281.195 188.601 287.795 188.601 287.795H156.943V271.978L172.122 271.361Z" fill="#367CFF"/>
<path d="M111.895 265.775C111.895 265.775 109.52 274.467 116.737 278.567C123.954 282.666 119.428 287.795 119.428 287.795L91.0212 273.819L98.0028 259.627L111.895 265.775Z" fill="#367CFF"/>
<path d="M94.3011 263.319L118.256 187.748H74.834C66.1114 187.748 62.4756 180.351 62.4756 171.629C62.4756 162.907 71.0502 155.261 79.7722 155.261H138.376C143.696 155.261 149.661 158.515 152.581 162.962C155.501 167.409 154.712 174.301 152.596 179.182L114.236 272.35" fill="#262626"/>
<path opacity="0.8" d="M94.3011 263.319L118.256 187.748H74.834C66.1114 187.748 62.4756 180.351 62.4756 171.629C62.4756 162.907 71.0502 155.261 79.7722 155.261H138.376C143.696 155.261 149.661 158.515 152.581 162.962C155.501 167.409 154.712 174.301 152.596 179.182L114.236 272.35" fill="#0A0A0A"/>
<path d="M155.123 279.578L115.069 187.748L62.4758 187.744C50.1521 186.778 44.5085 180.024 44.6877 171.304C44.8647 162.695 49.2241 154.191 57.7952 154.191H128.68C135.022 154.321 140.011 161.329 142.363 167.219L175.662 273.956" fill="#262626"/>
<path d="M41.0999 154.297C41.0999 154.297 38.7642 169.528 42.4666 177.996C47.0886 188.569 64.4154 187.745 64.4154 187.745L63.4391 154.191L41.0999 154.297Z" fill="#262626"/>
<path d="M143.869 153.997L106.719 146.299C105.171 145.978 103.728 145.272 102.526 144.246C101.323 143.22 100.398 141.907 99.8371 140.429L85.2251 101.924C84.7871 100.77 84.5807 99.5409 84.6178 98.307C84.6548 97.073 84.9345 95.8585 85.4409 94.7326C85.9473 93.6068 86.6706 92.5917 87.5693 91.7454C88.468 90.899 89.5246 90.238 90.6788 89.8C91.833 89.362 93.0621 89.1556 94.2961 89.1926C95.53 89.2297 96.7446 89.5094 97.8704 90.0158C98.9963 90.5222 100.011 91.2455 100.858 92.1442C101.704 93.0429 102.365 94.0995 102.803 95.2537L115.585 128.934L147.685 135.586C147.685 135.586 144.514 154.13 143.869 153.997Z" fill="#367CFF"/>
<path d="M100.901 111.702C100.472 116.743 97.431 148.188 97.0172 154.396H41.1243C40.8031 148.797 39.7605 125.024 38.5428 114.074C37.3802 103.626 36.9587 97.6632 38.2977 94.4161C40.6592 88.6894 46.5686 86.6288 51.6586 85.9396C54.7669 85.5187 59.4418 85.2169 59.4418 85.2169C59.4418 85.2169 59.8375 93.2242 69.2757 93.6699C82.1241 94.2748 81.2662 85.2169 81.3295 85.2169C83.4112 85.2169 94.741 86.7306 97.574 88.5774C101.575 91.1852 102.758 94.7395 102.805 98.0048C102.858 101.764 101.388 105.986 100.901 111.702Z" fill="#367CFF"/>
<path d="M98.7036 137.397C98.6991 137.398 98.6947 137.398 98.6902 137.397C98.6482 137.394 98.6092 137.374 98.582 137.342C98.5547 137.309 98.5413 137.268 98.5447 137.226L99.9957 119.795C99.9969 119.774 100.002 119.753 100.012 119.734C100.021 119.716 100.034 119.699 100.05 119.685C100.067 119.672 100.085 119.662 100.105 119.655C100.126 119.649 100.147 119.647 100.168 119.65C100.21 119.653 100.248 119.673 100.276 119.705C100.303 119.738 100.316 119.779 100.313 119.821L98.8621 137.252C98.8586 137.292 98.8404 137.329 98.811 137.356C98.7817 137.382 98.7434 137.397 98.7036 137.397Z" fill="#0C0C0C"/>
<path d="M125.325 147.858L137.589 110.159C137.804 109.496 138.224 108.919 138.788 108.509C139.351 108.1 140.03 107.88 140.727 107.88H190.691C191.212 107.88 191.726 108.003 192.19 108.239C192.654 108.476 193.055 108.819 193.361 109.24C193.667 109.662 193.869 110.15 193.951 110.664C194.032 111.178 193.99 111.705 193.829 112.2L181.565 149.899C181.35 150.562 180.93 151.139 180.366 151.548C179.803 151.958 179.124 152.178 178.427 152.178H128.462C127.941 152.178 127.428 152.055 126.964 151.818C126.5 151.582 126.098 151.239 125.792 150.817C125.487 150.396 125.285 149.908 125.203 149.394C125.122 148.879 125.164 148.353 125.325 147.858V147.858Z" fill="#292A2E"/>
<path d="M125.325 147.858L137.589 110.159C137.804 109.496 138.224 108.919 138.788 108.509C139.351 108.1 140.03 107.88 140.727 107.88H190.691C191.212 107.88 191.726 108.003 192.19 108.239C192.654 108.476 193.055 108.819 193.361 109.24C193.667 109.662 193.869 110.15 193.951 110.664C194.032 111.178 193.99 111.705 193.829 112.2L181.565 149.899C181.35 150.562 180.93 151.139 180.366 151.548C179.803 151.958 179.124 152.178 178.427 152.178H128.462C127.941 152.178 127.428 152.055 126.964 151.818C126.5 151.582 126.098 151.239 125.792 150.817C125.487 150.396 125.285 149.908 125.203 149.394C125.122 148.879 125.164 148.353 125.325 147.858V147.858Z" fill="#292A2E"/>
<path d="M135.329 149.122H101.883C101.049 149.122 100.374 149.797 100.374 150.631V150.669C100.374 151.503 101.049 152.178 101.883 152.178H135.329C136.163 152.178 136.838 151.503 136.838 150.669V150.631C136.838 149.797 136.163 149.122 135.329 149.122Z" fill="#292A2E"/>
<path d="M135.329 149.122H101.883C101.049 149.122 100.374 149.797 100.374 150.631V150.669C100.374 151.503 101.049 152.178 101.883 152.178H135.329C136.163 152.178 136.838 151.503 136.838 150.669V150.631C136.838 149.797 136.163 149.122 135.329 149.122Z" fill="#292A2E"/>
<path d="M159.577 137.108C162.471 137.108 164.817 134.762 164.817 131.868C164.817 128.974 162.471 126.628 159.577 126.628C156.683 126.628 154.337 128.974 154.337 131.868C154.337 134.762 156.683 137.108 159.577 137.108Z" fill="white"/>
<path d="M122.529 139.027L114.182 136.101L115.38 136.018C115.766 135.983 116.125 135.804 116.384 135.515C116.643 135.226 116.782 134.85 116.774 134.462C116.763 134.262 116.711 134.067 116.622 133.887C116.533 133.708 116.408 133.549 116.256 133.419C116.103 133.29 115.925 133.193 115.734 133.134C115.542 133.075 115.341 133.056 115.142 133.078L100.374 134.647L100.756 139.393C100.875 140.867 101.432 142.272 102.354 143.428C103.277 144.583 104.524 145.437 105.935 145.88L112.33 147.872C112.661 147.982 113.019 147.974 113.344 147.85C113.67 147.726 113.942 147.494 114.116 147.192C114.267 146.917 114.326 146.6 114.285 146.288C114.243 145.977 114.103 145.687 113.885 145.461C113.899 145.451 113.911 145.438 113.92 145.423C113.929 145.408 113.934 145.392 113.937 145.374C113.939 145.357 113.938 145.34 113.933 145.323C113.929 145.306 113.921 145.291 113.91 145.277L115.088 145.647C115.456 145.77 115.856 145.749 116.209 145.589C116.562 145.428 116.841 145.139 116.989 144.781C117.111 144.456 117.113 144.098 116.997 143.772C116.88 143.445 116.652 143.17 116.353 142.994C116.367 142.987 116.379 142.977 116.389 142.965L116.874 143.117C117.204 143.227 117.562 143.219 117.887 143.096C118.213 142.972 118.485 142.74 118.659 142.438C118.843 142.103 118.889 141.711 118.789 141.342C118.69 140.974 118.451 140.659 118.124 140.463C118.127 140.453 118.128 140.443 118.129 140.433L121.605 141.651C121.953 141.773 122.335 141.752 122.667 141.592C123 141.432 123.255 141.147 123.377 140.799C123.499 140.451 123.478 140.069 123.318 139.736C123.158 139.404 122.873 139.149 122.525 139.027H122.529Z" fill="#E98862"/>
<path opacity="0.2" d="M117.996 140.569C117.98 140.569 117.964 140.566 117.949 140.56L114.586 139.339C114.552 139.326 114.524 139.301 114.508 139.267C114.493 139.234 114.491 139.196 114.504 139.161C114.517 139.127 114.543 139.099 114.576 139.083C114.609 139.068 114.647 139.066 114.682 139.079L118.044 140.301C118.075 140.313 118.101 140.334 118.117 140.362C118.133 140.39 118.139 140.423 118.133 140.456C118.128 140.488 118.111 140.517 118.086 140.538C118.061 140.559 118.03 140.57 117.997 140.57L117.996 140.569Z" fill="#0A0A0A"/>
<path opacity="0.2" d="M116.296 143.013C116.281 143.013 116.265 143.011 116.25 143.005L113.6 142.065C113.583 142.059 113.567 142.05 113.553 142.037C113.54 142.025 113.529 142.011 113.521 141.994C113.513 141.978 113.509 141.96 113.508 141.942C113.507 141.924 113.509 141.905 113.516 141.888C113.522 141.871 113.531 141.855 113.543 141.842C113.555 141.828 113.57 141.817 113.587 141.81C113.603 141.802 113.621 141.797 113.639 141.796C113.657 141.795 113.675 141.798 113.692 141.804L116.343 142.744C116.374 142.755 116.4 142.777 116.416 142.805C116.433 142.833 116.439 142.866 116.433 142.899C116.428 142.931 116.411 142.96 116.386 142.981C116.361 143.002 116.329 143.013 116.296 143.013Z" fill="#0A0A0A"/>
<path opacity="0.2" d="M113.801 145.494C113.784 145.494 113.767 145.491 113.751 145.485L112.51 145.011C112.492 145.006 112.476 144.996 112.462 144.984C112.448 144.971 112.436 144.956 112.428 144.939C112.42 144.922 112.416 144.904 112.415 144.885C112.414 144.867 112.417 144.848 112.424 144.831C112.431 144.813 112.441 144.797 112.454 144.784C112.467 144.77 112.483 144.76 112.5 144.752C112.517 144.745 112.536 144.741 112.554 144.742C112.573 144.742 112.591 144.745 112.609 144.753L113.85 145.226C113.88 145.238 113.905 145.26 113.921 145.288C113.937 145.316 113.942 145.349 113.937 145.381C113.931 145.412 113.914 145.441 113.889 145.462C113.864 145.483 113.833 145.494 113.801 145.494H113.801Z" fill="#0A0A0A"/>
<path d="M106.91 131.839L71.892 131.815L58.6447 99.4994L38.8826 107.808L55.4113 146.162L55.573 146.544C56.3816 148.408 57.7437 149.979 59.4747 151.043C61.2058 152.108 63.2221 152.614 65.2507 152.494L107.44 150.002L106.91 131.839Z" fill="#367CFF"/>
<path d="M64.6698 152.67C62.7067 152.667 60.7871 152.091 59.1456 151.015C57.5041 149.938 56.2118 148.406 55.4267 146.607L55.2647 146.225L41.1812 113.544L41.4734 113.418L55.7193 146.482C56.5188 148.313 57.8598 149.855 59.5621 150.902C61.2644 151.948 63.2463 152.449 65.2413 152.335L107.276 149.852L106.756 131.998L71.7858 131.975L61.5988 107.128L61.8932 107.007L71.9988 131.657L107.064 131.68L107.603 150.152L107.449 150.161L65.2594 152.654C65.0625 152.665 64.8659 152.67 64.6698 152.67Z" fill="#0C0C0C"/>
<path d="M275.122 155.229L274.489 155.293L287.909 288.153L288.543 288.089L275.122 155.229Z" fill="#494949"/>
<path d="M25.7201 155.23L12.2903 288.09L12.9237 288.154L26.3535 155.294L25.7201 155.23Z" fill="#494949"/>
<path d="M81.2069 155.23L67.7771 288.09L68.4106 288.154L81.8404 155.294L81.2069 155.23Z" fill="#494949"/>
<path d="M330.609 155.228L329.975 155.292L343.396 288.153L344.029 288.089L330.609 155.228Z" fill="#494949"/>
<path d="M342.711 152.653H14.4974C13.0568 152.653 11.8889 153.821 11.8889 155.261C11.8889 156.702 13.0568 157.87 14.4974 157.87H342.711C344.152 157.87 345.319 156.702 345.319 155.261C345.319 153.821 344.152 152.653 342.711 152.653Z" fill="#292A2E"/>
<path opacity="0.8" d="M342.711 152.653H14.4974C13.0568 152.653 11.8889 153.821 11.8889 155.261C11.8889 156.702 13.0568 157.87 14.4974 157.87H342.711C344.152 157.87 345.319 156.702 345.319 155.261C345.319 153.821 344.152 152.653 342.711 152.653Z" fill="white"/>
<path d="M342.711 158.188H14.4989C14.112 158.192 13.7281 158.119 13.3695 157.974C13.0109 157.829 12.6846 157.614 12.4096 157.342C12.1346 157.069 11.9162 156.745 11.7672 156.388C11.6182 156.031 11.5415 155.648 11.5415 155.261C11.5415 154.874 11.6182 154.491 11.7672 154.134C11.9162 153.777 12.1346 153.453 12.4096 153.181C12.6846 152.909 13.0109 152.694 13.3695 152.549C13.7281 152.403 14.112 152.331 14.4989 152.335H342.711C343.482 152.343 344.219 152.654 344.761 153.202C345.304 153.75 345.608 154.49 345.608 155.261C345.608 156.032 345.304 156.772 344.761 157.32C344.219 157.868 343.482 158.18 342.711 158.188V158.188ZM14.4989 152.971C14.1959 152.968 13.8952 153.024 13.6142 153.138C13.3332 153.251 13.0776 153.419 12.8621 153.632C12.6465 153.845 12.4754 154.099 12.3586 154.379C12.2419 154.658 12.1817 154.958 12.1817 155.261C12.1817 155.564 12.2419 155.864 12.3586 156.144C12.4754 156.424 12.6465 156.677 12.8621 156.89C13.0776 157.103 13.3332 157.271 13.6142 157.385C13.8952 157.498 14.1959 157.555 14.4989 157.551H342.711C343.314 157.544 343.89 157.3 344.313 156.871C344.737 156.442 344.975 155.864 344.975 155.261C344.975 154.659 344.737 154.08 344.313 153.651C343.89 153.223 343.314 152.978 342.711 152.971H14.4989Z" fill="#292A2E"/>
<path d="M342.711 152.653H72.1053C70.6647 152.653 69.4968 153.821 69.4968 155.261C69.4968 156.702 70.6647 157.869 72.1053 157.869H342.711C344.152 157.869 345.319 156.702 345.319 155.261C345.319 153.821 344.152 152.653 342.711 152.653Z" fill="white"/>
<path d="M342.711 158.188H72.1051C71.3341 158.18 70.5975 157.868 70.0552 157.32C69.5129 156.772 69.2087 156.032 69.2087 155.261C69.2087 154.49 69.5129 153.75 70.0552 153.202C70.5975 152.654 71.3341 152.343 72.1051 152.335H342.711C343.482 152.343 344.219 152.654 344.761 153.202C345.304 153.75 345.608 154.49 345.608 155.261C345.608 156.032 345.304 156.772 344.761 157.32C344.219 157.868 343.482 158.18 342.711 158.188V158.188ZM72.1051 152.971C71.5024 152.978 70.9268 153.223 70.5032 153.651C70.0795 154.08 69.8419 154.659 69.8419 155.261C69.8419 155.864 70.0795 156.442 70.5032 156.871C70.9268 157.3 71.5024 157.544 72.1051 157.551H342.711C343.314 157.544 343.89 157.3 344.313 156.871C344.737 156.442 344.975 155.864 344.975 155.261C344.975 154.659 344.737 154.08 344.313 153.651C343.89 153.223 343.314 152.978 342.711 152.971H72.1051Z" fill="#292A2E"/>
</g>
<defs>
<filter id="filter0_d_34_1308" x="0.212158" y="0" width="355.575" height="296.182" filterUnits="userSpaceOnUse" color-interpolation-filters="sRGB">
<feFlood flood-opacity="0" result="BackgroundImageFix"/>
<feColorMatrix in="SourceAlpha" type="matrix" values="0 0 0 0 0 0 0 0 0 0 0 0 0 0 0 0 0 0 127 0" result="hardAlpha"/>
<feOffset dy="4"/>
<feGaussianBlur stdDeviation="2"/>
<feComposite in2="hardAlpha" operator="out"/>
<feColorMatrix type="matrix" values="0 0 0 0 0 0 0 0 0 0 0 0 0 0 0 0 0 0 0.25 0"/>
<feBlend mode="normal" in2="BackgroundImageFix" result="effect1_dropShadow_34_1308"/>
<feBlend mode="normal" in="SourceGraphic" in2="effect1_dropShadow_34_1308" result="shape"/>
</filter>
<clipPath id="clip0_34_1308">
<rect width="347.575" height="288.182" fill="white" transform="translate(4.21216)"/>
</clipPath>
</defs>
</svg>
