<svg width="51" height="41" viewBox="0 0 51 41" fill="none" xmlns="http://www.w3.org/2000/svg">
<path d="M50.9683 6.93382C51.0592 7.28353 50.9445 7.66941 50.7524 7.97088L44.6281 17.6421C44.4009 18.0159 43.9237 18.2209 43.5248 18.2209C43.4112 18.2209 43.0931 18.1968 42.9692 18.1606L38.0607 16.8824V39.7941C38.0607 40.4935 37.5948 41 36.9245 41H13.0635C12.3932 41 11.9273 40.4935 11.9273 39.7941V16.8824L7.51871 18.1726C7.00741 18.3415 6.56428 18.1244 6.28022 17.6541L0.201363 8.00706C0.00820334 7.69353 -0.0486085 7.34382 0.0422903 6.99412C0.121827 6.63235 0.360436 6.39118 0.667219 6.22235L13.0635 0H18.7447C19.4151 0 19.8809 0.494412 19.8809 1.20588C19.8809 3.69 23.1647 5.45059 25.5053 5.45059C27.8459 5.45059 31.2433 3.70206 31.2433 1.20588C31.2433 0.506471 31.7091 0 32.3795 0H38.0607L50.332 6.10177C50.6502 6.27059 50.8774 6.57206 50.9683 6.93382Z" fill="#27547E"/>
</svg>
