<svg width="44" height="46" viewBox="0 0 44 46" fill="none" xmlns="http://www.w3.org/2000/svg">
<rect width="44" height="46" fill="white"/>
<path d="M37.7116 28.4817L39.0316 27.1017C39.2016 26.9244 39.3364 26.7137 39.4284 26.4819C39.5204 26.25 39.5678 26.0014 39.5678 25.7504C39.5678 25.4994 39.5204 25.2508 39.4284 25.019C39.3364 24.7871 39.2016 24.5765 39.0316 24.3992L38.9949 24.3608C38.8253 24.1832 38.6239 24.0422 38.4021 23.946C38.1803 23.8498 37.9426 23.8003 37.7024 23.8003C37.4623 23.8003 37.2246 23.8498 37.0028 23.946C36.781 24.0422 36.5795 24.1832 36.4099 24.3608L31.1666 29.8425L15.4549 13.4167L20.6983 7.935C20.8682 7.75768 21.0031 7.54707 21.0951 7.3152C21.1871 7.08333 21.2344 6.83478 21.2344 6.58375C21.2344 6.33273 21.1871 6.08417 21.0951 5.85231C21.0031 5.62044 20.8682 5.40982 20.6983 5.2325L20.6616 5.19417C20.492 5.01649 20.2905 4.87552 20.0688 4.77934C19.847 4.68316 19.6092 4.63365 19.3691 4.63365C19.129 4.63365 18.8912 4.68316 18.6695 4.77934C18.4477 4.87552 18.2462 5.01649 18.0766 5.19417L16.7566 6.57417L15.4366 5.19417C14.7216 4.44667 13.5483 4.44667 12.8333 5.19417L10.2116 7.935L8.89161 6.555C8.54189 6.19564 8.07114 5.99427 7.58078 5.99427C7.09041 5.99427 6.61966 6.19564 6.26994 6.555C5.92621 6.92062 5.73359 7.41276 5.73359 7.92542C5.73359 8.43808 5.92621 8.93022 6.26994 9.29584L7.58994 10.6758L4.96828 13.4167C4.79832 13.594 4.66348 13.8046 4.57148 14.0365C4.47948 14.2683 4.43213 14.5169 4.43213 14.7679C4.43213 15.0189 4.47948 15.2675 4.57148 15.4994C4.66348 15.7312 4.79832 15.9419 4.96828 16.1192L6.28828 17.4992L4.96828 18.8983C4.79832 19.0757 4.66348 19.2863 4.57148 19.5181C4.47948 19.75 4.43213 19.9986 4.43213 20.2496C4.43213 20.5006 4.47948 20.7492 4.57148 20.981C4.66348 21.2129 4.79832 21.4235 4.96828 21.6008L5.00494 21.6392C5.71994 22.3867 6.87494 22.3867 7.58994 21.6392L12.8333 16.1575L28.5449 32.5833L23.3016 38.065C23.1317 38.2423 22.9968 38.4529 22.9048 38.6848C22.8128 38.9167 22.7655 39.1652 22.7655 39.4163C22.7655 39.6673 22.8128 39.9158 22.9048 40.1477C22.9968 40.3796 23.1317 40.5902 23.3016 40.7675L23.3383 40.8058C24.0533 41.5533 25.2083 41.5533 25.9233 40.8058L27.2433 39.4258L28.5633 40.8058C29.2783 41.5533 30.4333 41.5533 31.1483 40.8058L33.7699 38.065L35.0899 39.445C35.8049 40.1925 36.9966 40.1925 37.7116 39.445C38.4266 38.6975 38.4266 37.4517 37.7116 36.7042L36.3916 35.3242L39.0316 32.5833C39.2016 32.406 39.3364 32.1954 39.4284 31.9635C39.5204 31.7317 39.5678 31.4831 39.5678 31.2321C39.5678 30.9811 39.5204 30.7325 39.4284 30.5006C39.3364 30.2688 39.2016 30.0582 39.0316 29.8808L37.7116 28.4817Z" fill="#27547E"/>
</svg>
