<svg width="44" height="46" viewBox="0 0 44 46" fill="none" xmlns="http://www.w3.org/2000/svg">
<path d="M5.5 31.625V37.375C5.5 38.1375 5.78973 38.8688 6.30546 39.4079C6.82118 39.9471 7.52065 40.25 8.25 40.25H13.75M30.25 40.25H35.75C36.4793 40.25 37.1788 39.9471 37.6945 39.4079C38.2103 38.8688 38.5 38.1375 38.5 37.375V31.625M38.5 14.375V8.625C38.5 7.8625 38.2103 7.13124 37.6945 6.59207C37.1788 6.0529 36.4793 5.75 35.75 5.75H30.25M5.5 14.375V8.625C5.5 7.8625 5.78973 7.13124 6.30546 6.59207C6.82118 6.0529 7.52065 5.75 8.25 5.75H13.75M31.1667 23L22 32.5833L12.8333 23C11.9167 22.0417 11.4583 20.125 12.8333 18.2083C14.2083 16.2917 16.9583 16.2917 18.3333 17.25C19.7083 18.2083 20.1667 19.1667 22 19.1667C23.8333 19.1667 24.2917 18.2083 25.6667 17.25C27.0417 16.2917 29.7917 16.2917 31.1667 18.2083C32.5417 20.125 32.0833 22.0417 31.1667 23Z" stroke="#27547E" stroke-width="4" stroke-linecap="round" stroke-linejoin="round"/>
</svg>
