<svg width="44" height="46" viewBox="0 0 44 46" fill="none" xmlns="http://www.w3.org/2000/svg">
<path d="M38.5 17.25V13.4166C38.5 10.2541 36.025 7.66663 33 7.66663H25.6667C24.255 7.66663 22.9717 8.24163 22 9.16163C21.0283 8.24163 19.745 7.66663 18.3333 7.66663H11C7.975 7.66663 5.5 10.2541 5.5 13.4166V17.25C2.475 17.25 0 19.8375 0 23V32.5833C0 35.7458 2.475 38.3333 5.5 38.3333V42.1666H9.16667V38.3333H34.8333V42.1666H38.5V38.3333C41.525 38.3333 44 35.7458 44 32.5833V23C44 19.8375 41.525 17.25 38.5 17.25ZM25.6667 11.5H33C34.0083 11.5 34.8333 12.3625 34.8333 13.4166V18.745C33.715 19.7991 33 21.3133 33 23V26.8333H23.8333V13.4166C23.8333 12.3625 24.6583 11.5 25.6667 11.5ZM9.16667 13.4166C9.16667 12.3625 9.99167 11.5 11 11.5H18.3333C19.3417 11.5 20.1667 12.3625 20.1667 13.4166V26.8333H11V23C11 21.3133 10.285 19.7991 9.16667 18.745V13.4166ZM40.3333 32.5833C40.3333 33.6375 39.5083 34.5 38.5 34.5H5.5C4.49167 34.5 3.66667 33.6375 3.66667 32.5833V23C3.66667 21.9458 4.49167 21.0833 5.5 21.0833C6.50833 21.0833 7.33333 21.9458 7.33333 23V30.6666H36.6667V23C36.6667 21.9458 37.4917 21.0833 38.5 21.0833C39.5083 21.0833 40.3333 21.9458 40.3333 23V32.5833Z" fill="#27547E"/>
</svg>
