<svg width="44" height="46" viewBox="0 0 44 46" fill="none" xmlns="http://www.w3.org/2000/svg">
<path d="M43.0269 0.505709C42.7198 0.280667 42.3648 0.12514 41.9878 0.0505113C41.6108 -0.0241175 41.2214 -0.0159602 40.8481 0.0743859L13.7712 6.64692C13.2212 6.7762 12.7321 7.08161 12.3829 7.51388C12.0336 7.94615 11.8445 8.48006 11.8462 9.02947V30.267C10.7817 29.8039 9.62797 29.5659 8.46154 29.5687C6.78801 29.5687 5.15206 30.0505 3.76056 30.9532C2.36907 31.856 1.28453 33.1391 0.6441 34.6403C0.00366625 36.1415 -0.1639 37.7934 0.16259 39.3871C0.48908 40.9808 1.29496 42.4447 2.47833 43.5937C3.6617 44.7427 5.1694 45.5251 6.81078 45.8421C8.45216 46.1591 10.1535 45.9964 11.6996 45.3746C13.2458 44.7528 14.5673 43.6998 15.4971 42.3487C16.4268 40.9976 16.9231 39.4092 16.9231 37.7843V10.9602L38.9231 5.61997V23.6944C37.8586 23.2314 36.7049 22.9933 35.5385 22.9961C33.8649 22.9961 32.229 23.478 30.8375 24.3807C29.446 25.2835 28.3615 26.5666 27.721 28.0678C27.0806 29.569 26.913 31.2209 27.2395 32.8146C27.566 34.4083 28.3719 35.8722 29.5553 37.0211C30.7386 38.1701 32.2463 38.9526 33.8877 39.2696C35.5291 39.5866 37.2304 39.4239 38.7766 38.8021C40.3227 38.1803 41.6442 37.1272 42.574 35.7762C43.5037 34.4251 44 32.8367 44 31.2118V2.45693C44.0002 2.08145 43.9127 1.71082 43.7441 1.37287C43.5756 1.03492 43.3304 0.738445 43.0269 0.505709ZM8.46154 41.0706C7.79213 41.0706 7.13775 40.8779 6.58115 40.5168C6.02455 40.1557 5.59074 39.6424 5.33456 39.0419C5.07839 38.4414 5.01136 37.7807 5.14196 37.1432C5.27256 36.5057 5.59491 35.9202 6.06826 35.4606C6.5416 35.001 7.14469 34.688 7.80124 34.5612C8.45779 34.4344 9.13832 34.4995 9.75678 34.7482C10.3752 34.9969 10.9038 35.4181 11.2757 35.9586C11.6477 36.499 11.8462 37.1344 11.8462 37.7843C11.8462 38.6559 11.4896 39.4918 10.8548 40.1081C10.2201 40.7244 9.3592 41.0706 8.46154 41.0706ZM35.5385 34.4981C34.869 34.4981 34.2147 34.3053 33.6581 33.9442C33.1015 33.5831 32.6677 33.0699 32.4115 32.4694C32.1553 31.8689 32.0883 31.2081 32.2189 30.5707C32.3495 29.9332 32.6718 29.3476 33.1452 28.888C33.6185 28.4284 34.2216 28.1155 34.8782 27.9887C35.5347 27.8619 36.2152 27.9269 36.8337 28.1757C37.4522 28.4244 37.9808 28.8456 38.3527 29.386C38.7246 29.9265 38.9231 30.5618 38.9231 31.2118C38.9231 32.0834 38.5665 32.9192 37.9317 33.5355C37.297 34.1518 36.4361 34.4981 35.5385 34.4981Z" fill="#27547E"/>
</svg>
